<svg width="42" height="42" viewBox="0 0 42 42" fill="none" xmlns="http://www.w3.org/2000/svg">
<path d="M22.7129 5.46465L26.6154 13.289C26.8969 13.8582 27.4459 14.2542 28.0828 14.3475L36.8244 15.6209C37.3383 15.693 37.8018 15.9634 38.1124 16.3722C38.4229 16.7811 38.5549 17.2947 38.4791 17.7994C38.4186 18.2178 38.2213 18.6055 37.9171 18.904L31.5794 25.0408C31.1153 25.4746 30.9041 26.1087 31.0175 26.7284L32.5785 35.3658C32.7509 36.3991 32.0615 37.3815 31.0175 37.5903C30.5902 37.6574 30.1523 37.5875 29.7687 37.3909L21.9637 33.3253C21.3856 33.0331 20.6997 33.0331 20.1217 33.3253L12.3167 37.3909C11.3553 37.9022 10.1542 37.5522 9.63174 36.6085C9.43379 36.2307 9.36275 35.801 9.42881 35.3811L10.9898 26.7437C11.1032 26.1241 10.892 25.4899 10.4279 25.0561L4.09019 18.9194C3.71838 18.559 3.50906 18.0672 3.50906 17.554C3.50906 17.0407 3.71838 16.5489 4.09019 16.1886C4.38971 15.8838 4.78631 15.6889 5.21411 15.6362L13.9557 14.3629C14.5926 14.2696 15.1416 13.8735 15.4231 13.3043L19.1851 5.46465C19.5141 4.79593 20.209 4.37656 20.9646 4.39073H21.1988C21.8563 4.47271 22.4266 4.87716 22.7129 5.46465Z" fill="#F25022"/>
<path d="M21.0115 33.0953C20.6696 33.093 20.3481 33.2056 20.0439 33.359L12.2635 37.4147C11.3304 37.8848 10.1455 37.507 9.63176 36.6085C9.43293 36.2366 9.36174 35.8115 9.42883 35.3965L10.9898 26.7745C11.0947 26.1508 10.8852 25.516 10.4279 25.0715L4.07459 18.9348C3.30847 18.1802 3.30847 16.9585 4.07459 16.204C4.37426 15.9079 4.76279 15.7143 5.1829 15.6517L13.9557 14.363C14.6318 14.2648 15.115 13.891 15.4231 13.3044L19.2342 5.37487C19.5246 4.72982 20.5011 4.28405 21.0271 4.3908C21.0115 4.91242 21.0115 32.7424 21.0115 33.0953Z" fill="#F25022"/>
</svg>
