<svg width="17" height="17" viewBox="0 0 17 17" fill="none" xmlns="http://www.w3.org/2000/svg">
<path d="M16.4333 7.36293H16.9333V7.22436L16.862 7.10556L16.4333 7.36293ZM0.566681 7.36293L0.138009 7.10556L0.0666809 7.22436V7.36293H0.566681ZM2.97611 3.34986L2.54744 3.09249L2.97611 3.34986ZM14.0239 3.34986L14.4526 3.09249L14.0239 3.34986ZM3.96668 13.0333V12.5333H3.46668V13.0333H3.96668ZM13.0333 13.0333H13.5333V12.5333H13.0333V13.0333ZM15.9333 7.36293V14.1667H16.9333V7.36293H15.9333ZM0.995353 7.6203L3.40478 3.60724L2.54744 3.09249L0.138009 7.10556L0.995353 7.6203ZM5.89107 2.2H11.109V1.2H5.89107V2.2ZM13.5952 3.60724L16.0047 7.6203L16.862 7.10556L14.4526 3.09249L13.5952 3.60724ZM2.83335 14.8H1.70001V15.8H2.83335V14.8ZM3.46668 13.0333V14.1667H4.46668V13.0333H3.46668ZM15.3 14.8H14.1667V15.8H15.3V14.8ZM13.5333 14.1667V13.0333H12.5333V14.1667H13.5333ZM13.0333 12.5333H3.96668V13.5333H13.0333V12.5333ZM1.06668 14.1667V7.36293H0.0666809V14.1667H1.06668ZM14.1667 14.8C13.8169 14.8 13.5333 14.5164 13.5333 14.1667H12.5333C12.5333 15.0687 13.2646 15.8 14.1667 15.8V14.8ZM2.83335 15.8C3.73541 15.8 4.46668 15.0687 4.46668 14.1667H3.46668C3.46668 14.5164 3.18313 14.8 2.83335 14.8V15.8ZM1.70001 14.8C1.35023 14.8 1.06668 14.5164 1.06668 14.1667H0.0666809C0.0666809 15.0687 0.797949 15.8 1.70001 15.8V14.8ZM11.109 2.2C12.1273 2.2 13.0711 2.73415 13.5952 3.60724L14.4526 3.09249C13.7476 1.91834 12.4785 1.2 11.109 1.2V2.2ZM3.40478 3.60724C3.92898 2.73415 4.87271 2.2 5.89107 2.2V1.2C4.52155 1.2 3.25239 1.91834 2.54744 3.09249L3.40478 3.60724ZM15.9333 14.1667C15.9333 14.5164 15.6498 14.8 15.3 14.8V15.8C16.2021 15.8 16.9333 15.0687 16.9333 14.1667H15.9333ZM2.26668 11.2667H5.66668V10.2667H2.26668V11.2667ZM14.7333 10.2667H11.3333V11.2667H14.7333V10.2667ZM3.40001 7.86666H13.6V6.86666H3.40001V7.86666Z" fill="white"/>
<path d="M16.4333 7.36293H16.9333V7.22436L16.862 7.10556L16.4333 7.36293ZM0.566681 7.36293L0.138009 7.10556L0.0666809 7.22436V7.36293H0.566681ZM2.97611 3.34986L2.54744 3.09249L2.97611 3.34986ZM14.0239 3.34986L14.4526 3.09249L14.0239 3.34986ZM3.96668 13.0333V12.5333H3.46668V13.0333H3.96668ZM13.0333 13.0333H13.5333V12.5333H13.0333V13.0333ZM15.9333 7.36293V14.1667H16.9333V7.36293H15.9333ZM0.995353 7.6203L3.40478 3.60724L2.54744 3.09249L0.138009 7.10556L0.995353 7.6203ZM5.89107 2.2H11.109V1.2H5.89107V2.2ZM13.5952 3.60724L16.0047 7.6203L16.862 7.10556L14.4526 3.09249L13.5952 3.60724ZM2.83335 14.8H1.70001V15.8H2.83335V14.8ZM3.46668 13.0333V14.1667H4.46668V13.0333H3.46668ZM15.3 14.8H14.1667V15.8H15.3V14.8ZM13.5333 14.1667V13.0333H12.5333V14.1667H13.5333ZM13.0333 12.5333H3.96668V13.5333H13.0333V12.5333ZM1.06668 14.1667V7.36293H0.0666809V14.1667H1.06668ZM14.1667 14.8C13.8169 14.8 13.5333 14.5164 13.5333 14.1667H12.5333C12.5333 15.0687 13.2646 15.8 14.1667 15.8V14.8ZM2.83335 15.8C3.73541 15.8 4.46668 15.0687 4.46668 14.1667H3.46668C3.46668 14.5164 3.18313 14.8 2.83335 14.8V15.8ZM1.70001 14.8C1.35023 14.8 1.06668 14.5164 1.06668 14.1667H0.0666809C0.0666809 15.0687 0.797949 15.8 1.70001 15.8V14.8ZM11.109 2.2C12.1273 2.2 13.0711 2.73415 13.5952 3.60724L14.4526 3.09249C13.7476 1.91834 12.4785 1.2 11.109 1.2V2.2ZM3.40478 3.60724C3.92898 2.73415 4.87271 2.2 5.89107 2.2V1.2C4.52155 1.2 3.25239 1.91834 2.54744 3.09249L3.40478 3.60724ZM15.9333 14.1667C15.9333 14.5164 15.6498 14.8 15.3 14.8V15.8C16.2021 15.8 16.9333 15.0687 16.9333 14.1667H15.9333ZM2.26668 11.2667H5.66668V10.2667H2.26668V11.2667ZM14.7333 10.2667H11.3333V11.2667H14.7333V10.2667ZM3.40001 7.86666H13.6V6.86666H3.40001V7.86666Z" fill="white"/>
<path d="M16.4333 7.36293H16.9333V7.22436L16.862 7.10556L16.4333 7.36293ZM0.566681 7.36293L0.138009 7.10556L0.0666809 7.22436V7.36293H0.566681ZM2.97611 3.34986L2.54744 3.09249L2.97611 3.34986ZM14.0239 3.34986L14.4526 3.09249L14.0239 3.34986ZM3.96668 13.0333V12.5333H3.46668V13.0333H3.96668ZM13.0333 13.0333H13.5333V12.5333H13.0333V13.0333ZM15.9333 7.36293V14.1667H16.9333V7.36293H15.9333ZM0.995353 7.6203L3.40478 3.60724L2.54744 3.09249L0.138009 7.10556L0.995353 7.6203ZM5.89107 2.2H11.109V1.2H5.89107V2.2ZM13.5952 3.60724L16.0047 7.6203L16.862 7.10556L14.4526 3.09249L13.5952 3.60724ZM2.83335 14.8H1.70001V15.8H2.83335V14.8ZM3.46668 13.0333V14.1667H4.46668V13.0333H3.46668ZM15.3 14.8H14.1667V15.8H15.3V14.8ZM13.5333 14.1667V13.0333H12.5333V14.1667H13.5333ZM13.0333 12.5333H3.96668V13.5333H13.0333V12.5333ZM1.06668 14.1667V7.36293H0.0666809V14.1667H1.06668ZM14.1667 14.8C13.8169 14.8 13.5333 14.5164 13.5333 14.1667H12.5333C12.5333 15.0687 13.2646 15.8 14.1667 15.8V14.8ZM2.83335 15.8C3.73541 15.8 4.46668 15.0687 4.46668 14.1667H3.46668C3.46668 14.5164 3.18313 14.8 2.83335 14.8V15.8ZM1.70001 14.8C1.35023 14.8 1.06668 14.5164 1.06668 14.1667H0.0666809C0.0666809 15.0687 0.797949 15.8 1.70001 15.8V14.8ZM11.109 2.2C12.1273 2.2 13.0711 2.73415 13.5952 3.60724L14.4526 3.09249C13.7476 1.91834 12.4785 1.2 11.109 1.2V2.2ZM3.40478 3.60724C3.92898 2.73415 4.87271 2.2 5.89107 2.2V1.2C4.52155 1.2 3.25239 1.91834 2.54744 3.09249L3.40478 3.60724ZM15.9333 14.1667C15.9333 14.5164 15.6498 14.8 15.3 14.8V15.8C16.2021 15.8 16.9333 15.0687 16.9333 14.1667H15.9333ZM2.26668 11.2667H5.66668V10.2667H2.26668V11.2667ZM14.7333 10.2667H11.3333V11.2667H14.7333V10.2667ZM3.40001 7.86666H13.6V6.86666H3.40001V7.86666Z" fill="white" fill-opacity="0.51"/>
</svg>
