<svg width="18" height="18" viewBox="0 0 18 18" fill="none" xmlns="http://www.w3.org/2000/svg">
<path d="M9.00001 9H8.50001C8.50001 9.13261 8.55268 9.25978 8.64645 9.35355L9.00001 9ZM9.00001 16.9C4.63696 16.9 1.10001 13.363 1.10001 9H0.100006C0.100006 13.9153 4.08467 17.9 9.00001 17.9V16.9ZM16.9 9C16.9 13.363 13.3631 16.9 9.00001 16.9V17.9C13.9153 17.9 17.9 13.9153 17.9 9H16.9ZM9.00001 1.1C13.3631 1.1 16.9 4.63695 16.9 9H17.9C17.9 4.08466 13.9153 0.0999985 9.00001 0.0999985V1.1ZM9.00001 0.0999985C4.08467 0.0999985 0.100006 4.08466 0.100006 9H1.10001C1.10001 4.63695 4.63696 1.1 9.00001 1.1V0.0999985ZM8.50001 3.6V9H9.50001V3.6H8.50001ZM8.64645 9.35355L12.2465 12.9536L12.9536 12.2464L9.35356 8.64644L8.64645 9.35355Z" fill="white"/>
<path d="M9.00001 9H8.50001C8.50001 9.13261 8.55268 9.25978 8.64645 9.35355L9.00001 9ZM9.00001 16.9C4.63696 16.9 1.10001 13.363 1.10001 9H0.100006C0.100006 13.9153 4.08467 17.9 9.00001 17.9V16.9ZM16.9 9C16.9 13.363 13.3631 16.9 9.00001 16.9V17.9C13.9153 17.9 17.9 13.9153 17.9 9H16.9ZM9.00001 1.1C13.3631 1.1 16.9 4.63695 16.9 9H17.9C17.9 4.08466 13.9153 0.0999985 9.00001 0.0999985V1.1ZM9.00001 0.0999985C4.08467 0.0999985 0.100006 4.08466 0.100006 9H1.10001C1.10001 4.63695 4.63696 1.1 9.00001 1.1V0.0999985ZM8.50001 3.6V9H9.50001V3.6H8.50001ZM8.64645 9.35355L12.2465 12.9536L12.9536 12.2464L9.35356 8.64644L8.64645 9.35355Z" fill="white"/>
<path d="M9.00001 9H8.50001C8.50001 9.13261 8.55268 9.25978 8.64645 9.35355L9.00001 9ZM9.00001 16.9C4.63696 16.9 1.10001 13.363 1.10001 9H0.100006C0.100006 13.9153 4.08467 17.9 9.00001 17.9V16.9ZM16.9 9C16.9 13.363 13.3631 16.9 9.00001 16.9V17.9C13.9153 17.9 17.9 13.9153 17.9 9H16.9ZM9.00001 1.1C13.3631 1.1 16.9 4.63695 16.9 9H17.9C17.9 4.08466 13.9153 0.0999985 9.00001 0.0999985V1.1ZM9.00001 0.0999985C4.08467 0.0999985 0.100006 4.08466 0.100006 9H1.10001C1.10001 4.63695 4.63696 1.1 9.00001 1.1V0.0999985ZM8.50001 3.6V9H9.50001V3.6H8.50001ZM8.64645 9.35355L12.2465 12.9536L12.9536 12.2464L9.35356 8.64644L8.64645 9.35355Z" fill="white" fill-opacity="0.51"/>
</svg>
