<svg width="19" height="19" viewBox="0 0 19 19" fill="none" xmlns="http://www.w3.org/2000/svg">
<path d="M5.7 13.3L5.25278 13.0764C5.15654 13.2689 5.19426 13.5014 5.34644 13.6536C5.49862 13.8057 5.73111 13.8435 5.9236 13.7472L5.7 13.3ZM8.23333 8.23333L8.00972 7.78612C7.91296 7.8345 7.8345 7.91296 7.78612 8.00972L8.23333 8.23333ZM13.3 5.7L13.7472 5.9236C13.8435 5.73111 13.8057 5.49862 13.6536 5.34644C13.5014 5.19426 13.2689 5.15654 13.0764 5.25278L13.3 5.7ZM10.7667 10.7667L10.9903 11.2139C11.087 11.1655 11.1655 11.087 11.2139 10.9903L10.7667 10.7667ZM9.5 17.8667C4.87922 17.8667 1.13333 14.1208 1.13333 9.5H0.133331C0.133331 14.6731 4.32693 18.8667 9.5 18.8667V17.8667ZM17.8667 9.5C17.8667 14.1208 14.1208 17.8667 9.5 17.8667V18.8667C14.6731 18.8667 18.8667 14.6731 18.8667 9.5H17.8667ZM9.5 1.13333C14.1208 1.13333 17.8667 4.87922 17.8667 9.5H18.8667C18.8667 4.32693 14.6731 0.133331 9.5 0.133331V1.13333ZM9.5 0.133331C4.32693 0.133331 0.133331 4.32693 0.133331 9.5H1.13333C1.13333 4.87922 4.87922 1.13333 9.5 1.13333V0.133331ZM6.14721 13.5236L8.68054 8.45694L7.78612 8.00972L5.25278 13.0764L6.14721 13.5236ZM8.45694 8.68054L13.5236 6.14721L13.0764 5.25278L8.00972 7.78612L8.45694 8.68054ZM12.8528 5.47639L10.3195 10.5431L11.2139 10.9903L13.7472 5.9236L12.8528 5.47639ZM10.5431 10.3195L5.47639 12.8528L5.9236 13.7472L10.9903 11.2139L10.5431 10.3195Z" fill="white"/>
<path d="M5.7 13.3L5.25278 13.0764C5.15654 13.2689 5.19426 13.5014 5.34644 13.6536C5.49862 13.8057 5.73111 13.8435 5.9236 13.7472L5.7 13.3ZM8.23333 8.23333L8.00972 7.78612C7.91296 7.8345 7.8345 7.91296 7.78612 8.00972L8.23333 8.23333ZM13.3 5.7L13.7472 5.9236C13.8435 5.73111 13.8057 5.49862 13.6536 5.34644C13.5014 5.19426 13.2689 5.15654 13.0764 5.25278L13.3 5.7ZM10.7667 10.7667L10.9903 11.2139C11.087 11.1655 11.1655 11.087 11.2139 10.9903L10.7667 10.7667ZM9.5 17.8667C4.87922 17.8667 1.13333 14.1208 1.13333 9.5H0.133331C0.133331 14.6731 4.32693 18.8667 9.5 18.8667V17.8667ZM17.8667 9.5C17.8667 14.1208 14.1208 17.8667 9.5 17.8667V18.8667C14.6731 18.8667 18.8667 14.6731 18.8667 9.5H17.8667ZM9.5 1.13333C14.1208 1.13333 17.8667 4.87922 17.8667 9.5H18.8667C18.8667 4.32693 14.6731 0.133331 9.5 0.133331V1.13333ZM9.5 0.133331C4.32693 0.133331 0.133331 4.32693 0.133331 9.5H1.13333C1.13333 4.87922 4.87922 1.13333 9.5 1.13333V0.133331ZM6.14721 13.5236L8.68054 8.45694L7.78612 8.00972L5.25278 13.0764L6.14721 13.5236ZM8.45694 8.68054L13.5236 6.14721L13.0764 5.25278L8.00972 7.78612L8.45694 8.68054ZM12.8528 5.47639L10.3195 10.5431L11.2139 10.9903L13.7472 5.9236L12.8528 5.47639ZM10.5431 10.3195L5.47639 12.8528L5.9236 13.7472L10.9903 11.2139L10.5431 10.3195Z" fill="white"/>
<path d="M5.7 13.3L5.25278 13.0764C5.15654 13.2689 5.19426 13.5014 5.34644 13.6536C5.49862 13.8057 5.73111 13.8435 5.9236 13.7472L5.7 13.3ZM8.23333 8.23333L8.00972 7.78612C7.91296 7.8345 7.8345 7.91296 7.78612 8.00972L8.23333 8.23333ZM13.3 5.7L13.7472 5.9236C13.8435 5.73111 13.8057 5.49862 13.6536 5.34644C13.5014 5.19426 13.2689 5.15654 13.0764 5.25278L13.3 5.7ZM10.7667 10.7667L10.9903 11.2139C11.087 11.1655 11.1655 11.087 11.2139 10.9903L10.7667 10.7667ZM9.5 17.8667C4.87922 17.8667 1.13333 14.1208 1.13333 9.5H0.133331C0.133331 14.6731 4.32693 18.8667 9.5 18.8667V17.8667ZM17.8667 9.5C17.8667 14.1208 14.1208 17.8667 9.5 17.8667V18.8667C14.6731 18.8667 18.8667 14.6731 18.8667 9.5H17.8667ZM9.5 1.13333C14.1208 1.13333 17.8667 4.87922 17.8667 9.5H18.8667C18.8667 4.32693 14.6731 0.133331 9.5 0.133331V1.13333ZM9.5 0.133331C4.32693 0.133331 0.133331 4.32693 0.133331 9.5H1.13333C1.13333 4.87922 4.87922 1.13333 9.5 1.13333V0.133331ZM6.14721 13.5236L8.68054 8.45694L7.78612 8.00972L5.25278 13.0764L6.14721 13.5236ZM8.45694 8.68054L13.5236 6.14721L13.0764 5.25278L8.00972 7.78612L8.45694 8.68054ZM12.8528 5.47639L10.3195 10.5431L11.2139 10.9903L13.7472 5.9236L12.8528 5.47639ZM10.5431 10.3195L5.47639 12.8528L5.9236 13.7472L10.9903 11.2139L10.5431 10.3195Z" fill="white" fill-opacity="0.51"/>
</svg>
