<svg width="35" height="25" viewBox="0 0 35 25" fill="none" xmlns="http://www.w3.org/2000/svg">
<path fill-rule="evenodd" clip-rule="evenodd" d="M21.875 3.38541C21.875 4.53124 20.5625 5.46874 18.9584 5.46874C17.3542 5.46874 16.0417 4.53124 16.0417 3.38541C16.0417 2.23958 17.3542 1.30208 18.9584 1.30208C20.5625 1.30208 21.875 2.23958 21.875 3.38541ZM9.47921 23.6979L13.5625 9.01041L10.9375 9.73958V13.2812H8.02087V8.38541L15.3855 6.15624C16.8 5.72916 18.4334 6.10416 19.25 7.03124L20.7084 8.69791C21.875 10.1562 24.2084 11.1979 26.9792 11.1979V13.2812C23.7709 13.2812 20.8542 12.2396 18.9584 10.6771L18.0834 13.8021L21.1459 15.8854V23.6979H18.2292V17.4479L15.1667 15.3646L12.5417 23.6979H9.47921Z" fill="#2D9CDB"/>
</svg>
