<svg width="20" height="21" viewBox="0 0 20 21" fill="none" xmlns="http://www.w3.org/2000/svg">
<path fill-rule="evenodd" clip-rule="evenodd" d="M11.5279 2.10001C13.043 2.10001 14.428 2.99882 15.1056 4.42171L17.3666 8.11979C17.7831 8.99458 18 9.95919 18 10.9372V16.8C18 17.9598 17.1046 18.9 16 18.9C14.8954 18.9 14 17.9598 14 16.8V15.75H6V16.8C6 17.9598 5.10457 18.9 4 18.9C2.89543 18.9 2 17.9598 2 16.8V10.9372C2 9.95919 2.21687 8.99458 2.63344 8.11979L4.89443 4.42171C5.572 2.99882 6.95705 2.10001 8.47214 2.10001H11.5279ZM15 11.55H13C12.4477 11.55 12 12.0201 12 12.6C12 13.1385 12.386 13.5823 12.8834 13.6429L13 13.65H15C15.5523 13.65 16 13.1799 16 12.6C16 12.0615 15.614 11.6177 15.1166 11.5571L15 11.55ZM7 11.55H5C4.44772 11.55 4 12.0201 4 12.6C4 13.1385 4.38604 13.5823 4.88338 13.6429L5 13.65H7C7.55228 13.65 8 13.1799 8 12.6C8 12.0615 7.61396 11.6177 7.11662 11.5571L7 11.55ZM11.7639 4.20001H8.23607C7.53263 4.20001 6.88526 4.5875 6.52512 5.21248L6.44721 5.36086L4 9.45H16L13.5528 5.36086C13.214 4.64941 12.5215 4.20001 11.7639 4.20001Z" fill="#2D9CDB"/>
</svg>
