<svg width="18" height="18" viewBox="0 0 18 18" fill="none" xmlns="http://www.w3.org/2000/svg">
<path d="M1.71002 2.54117L2.0782 3.31764M0.899994 5.57647L1.26818 6.35294M7.60092 2.54117L7.9691 3.38823M4.65545 1.2L5.02363 1.97647M13.3445 8.11765L12.9763 8.89412M10.3991 9.45882L10.0309 10.3059M17.1 12.4941L16.7318 13.2706M16.29 9.45882L15.9218 10.2353M4.72912 5.08235C5.24457 4.87059 5.83366 4.87059 6.34912 5.15294L8.3373 6.14117C9.00003 6.49412 9.22094 7.34117 8.70548 7.90588C8.48457 8.18823 8.11639 8.32941 7.74821 8.32941H6.86457C6.49639 8.32941 6.12821 8.47059 5.9073 8.75294L5.39185 9.38823C5.17094 9.67059 4.80276 9.81176 4.43457 9.81176C3.69821 9.81176 3.10912 9.10588 3.25639 8.4L3.69821 6.28235C3.84548 5.78823 4.21366 5.29412 4.72912 5.08235ZM13.2709 12C13.7864 12.2118 14.1545 12.7059 14.3018 13.2706L14.7436 15.3882C14.8909 16.0941 14.3755 16.8 13.5655 16.8C13.1973 16.8 12.8291 16.6588 12.6082 16.3765L12.0927 15.7412C11.8718 15.4588 11.5036 15.3176 11.1355 15.3176H10.2518C9.88364 15.3176 9.51546 15.1765 9.29455 14.8941C8.85273 14.3294 9 13.4823 9.66273 13.1294L11.6509 12.1412C12.0927 11.7882 12.7555 11.7176 13.2709 12Z" stroke="white" stroke-miterlimit="10" stroke-linecap="square" stroke-linejoin="round"/>
<path d="M1.71002 2.54117L2.0782 3.31764M0.899994 5.57647L1.26818 6.35294M7.60092 2.54117L7.9691 3.38823M4.65545 1.2L5.02363 1.97647M13.3445 8.11765L12.9763 8.89412M10.3991 9.45882L10.0309 10.3059M17.1 12.4941L16.7318 13.2706M16.29 9.45882L15.9218 10.2353M4.72912 5.08235C5.24457 4.87059 5.83366 4.87059 6.34912 5.15294L8.3373 6.14117C9.00003 6.49412 9.22094 7.34117 8.70548 7.90588C8.48457 8.18823 8.11639 8.32941 7.74821 8.32941H6.86457C6.49639 8.32941 6.12821 8.47059 5.9073 8.75294L5.39185 9.38823C5.17094 9.67059 4.80276 9.81176 4.43457 9.81176C3.69821 9.81176 3.10912 9.10588 3.25639 8.4L3.69821 6.28235C3.84548 5.78823 4.21366 5.29412 4.72912 5.08235ZM13.2709 12C13.7864 12.2118 14.1545 12.7059 14.3018 13.2706L14.7436 15.3882C14.8909 16.0941 14.3755 16.8 13.5655 16.8C13.1973 16.8 12.8291 16.6588 12.6082 16.3765L12.0927 15.7412C11.8718 15.4588 11.5036 15.3176 11.1355 15.3176H10.2518C9.88364 15.3176 9.51546 15.1765 9.29455 14.8941C8.85273 14.3294 9 13.4823 9.66273 13.1294L11.6509 12.1412C12.0927 11.7882 12.7555 11.7176 13.2709 12Z" stroke="white" stroke-miterlimit="10" stroke-linecap="square" stroke-linejoin="round"/>
<path d="M1.71002 2.54117L2.0782 3.31764M0.899994 5.57647L1.26818 6.35294M7.60092 2.54117L7.9691 3.38823M4.65545 1.2L5.02363 1.97647M13.3445 8.11765L12.9763 8.89412M10.3991 9.45882L10.0309 10.3059M17.1 12.4941L16.7318 13.2706M16.29 9.45882L15.9218 10.2353M4.72912 5.08235C5.24457 4.87059 5.83366 4.87059 6.34912 5.15294L8.3373 6.14117C9.00003 6.49412 9.22094 7.34117 8.70548 7.90588C8.48457 8.18823 8.11639 8.32941 7.74821 8.32941H6.86457C6.49639 8.32941 6.12821 8.47059 5.9073 8.75294L5.39185 9.38823C5.17094 9.67059 4.80276 9.81176 4.43457 9.81176C3.69821 9.81176 3.10912 9.10588 3.25639 8.4L3.69821 6.28235C3.84548 5.78823 4.21366 5.29412 4.72912 5.08235ZM13.2709 12C13.7864 12.2118 14.1545 12.7059 14.3018 13.2706L14.7436 15.3882C14.8909 16.0941 14.3755 16.8 13.5655 16.8C13.1973 16.8 12.8291 16.6588 12.6082 16.3765L12.0927 15.7412C11.8718 15.4588 11.5036 15.3176 11.1355 15.3176H10.2518C9.88364 15.3176 9.51546 15.1765 9.29455 14.8941C8.85273 14.3294 9 13.4823 9.66273 13.1294L11.6509 12.1412C12.0927 11.7882 12.7555 11.7176 13.2709 12Z" stroke="white" stroke-opacity="0.51" stroke-miterlimit="10" stroke-linecap="square" stroke-linejoin="round"/>
</svg>
