<svg width="28" height="26" viewBox="0 0 28 26" fill="none" xmlns="http://www.w3.org/2000/svg">
<path d="M18.3333 1L27 3.88889V11.1111H22.6667V22.6667C22.6667 23.0498 22.5145 23.4172 22.2436 23.688C21.9727 23.9589 21.6053 24.1111 21.2222 24.1111H6.77778C6.39469 24.1111 6.02729 23.9589 5.7564 23.688C5.48552 23.4172 5.33333 23.0498 5.33333 22.6667V11.1111H1V3.88889L9.66667 1C9.66667 2.14927 10.1232 3.25147 10.9359 4.06413C11.7485 4.87679 12.8507 5.33333 14 5.33333C15.1493 5.33333 16.2515 4.87679 17.0641 4.06413C17.8768 3.25147 18.3333 2.14927 18.3333 1Z" stroke="#828282" stroke-width="2" stroke-linecap="round" stroke-linejoin="round"/>
</svg>
