<svg width="345" height="316" viewBox="0 0 345 316" fill="none" xmlns="http://www.w3.org/2000/svg">
<path d="M290.035 281V279.684H292.779V272.376H292.667L290.399 274.798L289.433 273.93L291.925 271.228H294.333V279.684H296.713V281H290.035Z" fill="#2F80ED"/>
<path d="M248.163 275.246C248.77 275.246 249.218 275.12 249.507 274.868C249.797 274.607 249.941 274.275 249.941 273.874V273.776C249.941 273.328 249.801 272.987 249.521 272.754C249.241 272.511 248.863 272.39 248.387 272.39C247.921 272.39 247.524 272.497 247.197 272.712C246.871 272.917 246.595 273.207 246.371 273.58L245.321 272.67C245.471 272.455 245.639 272.25 245.825 272.054C246.012 271.858 246.231 271.69 246.483 271.55C246.735 271.401 247.02 271.284 247.337 271.2C247.655 271.107 248.019 271.06 248.429 271.06C248.887 271.06 249.311 271.116 249.703 271.228C250.095 271.34 250.431 271.508 250.711 271.732C250.991 271.947 251.211 272.213 251.369 272.53C251.528 272.838 251.607 273.188 251.607 273.58C251.607 273.888 251.556 274.168 251.453 274.42C251.36 274.672 251.225 274.896 251.047 275.092C250.879 275.279 250.679 275.433 250.445 275.554C250.221 275.675 249.983 275.764 249.731 275.82V275.89C250.011 275.946 250.273 276.039 250.515 276.17C250.767 276.291 250.987 276.455 251.173 276.66C251.36 276.856 251.505 277.094 251.607 277.374C251.719 277.645 251.775 277.957 251.775 278.312C251.775 278.741 251.691 279.133 251.523 279.488C251.355 279.833 251.117 280.132 250.809 280.384C250.511 280.636 250.147 280.832 249.717 280.972C249.288 281.103 248.812 281.168 248.289 281.168C247.832 281.168 247.431 281.117 247.085 281.014C246.74 280.921 246.432 280.795 246.161 280.636C245.9 280.468 245.667 280.281 245.461 280.076C245.265 279.861 245.093 279.642 244.943 279.418L246.105 278.508C246.227 278.704 246.353 278.886 246.483 279.054C246.623 279.213 246.777 279.353 246.945 279.474C247.123 279.586 247.319 279.675 247.533 279.74C247.757 279.805 248.009 279.838 248.289 279.838C248.887 279.838 249.344 279.698 249.661 279.418C249.979 279.129 250.137 278.732 250.137 278.228V278.13C250.137 277.626 249.969 277.243 249.633 276.982C249.297 276.721 248.821 276.59 248.205 276.59H247.169V275.246H248.163ZM254.342 281V279.684H257.086V272.376H256.974L254.706 274.798L253.74 273.93L256.232 271.228H258.64V279.684H261.02V281H254.342Z" fill="#7A7585"/>
<path d="M208.163 275.246C208.77 275.246 209.218 275.12 209.507 274.868C209.797 274.607 209.941 274.275 209.941 273.874V273.776C209.941 273.328 209.801 272.987 209.521 272.754C209.241 272.511 208.863 272.39 208.387 272.39C207.921 272.39 207.524 272.497 207.197 272.712C206.871 272.917 206.595 273.207 206.371 273.58L205.321 272.67C205.471 272.455 205.639 272.25 205.825 272.054C206.012 271.858 206.231 271.69 206.483 271.55C206.735 271.401 207.02 271.284 207.337 271.2C207.655 271.107 208.019 271.06 208.429 271.06C208.887 271.06 209.311 271.116 209.703 271.228C210.095 271.34 210.431 271.508 210.711 271.732C210.991 271.947 211.211 272.213 211.369 272.53C211.528 272.838 211.607 273.188 211.607 273.58C211.607 273.888 211.556 274.168 211.453 274.42C211.36 274.672 211.225 274.896 211.047 275.092C210.879 275.279 210.679 275.433 210.445 275.554C210.221 275.675 209.983 275.764 209.731 275.82V275.89C210.011 275.946 210.273 276.039 210.515 276.17C210.767 276.291 210.987 276.455 211.173 276.66C211.36 276.856 211.505 277.094 211.607 277.374C211.719 277.645 211.775 277.957 211.775 278.312C211.775 278.741 211.691 279.133 211.523 279.488C211.355 279.833 211.117 280.132 210.809 280.384C210.511 280.636 210.147 280.832 209.717 280.972C209.288 281.103 208.812 281.168 208.289 281.168C207.832 281.168 207.431 281.117 207.085 281.014C206.74 280.921 206.432 280.795 206.161 280.636C205.9 280.468 205.667 280.281 205.461 280.076C205.265 279.861 205.093 279.642 204.943 279.418L206.105 278.508C206.227 278.704 206.353 278.886 206.483 279.054C206.623 279.213 206.777 279.353 206.945 279.474C207.123 279.586 207.319 279.675 207.533 279.74C207.757 279.805 208.009 279.838 208.289 279.838C208.887 279.838 209.344 279.698 209.661 279.418C209.979 279.129 210.137 278.732 210.137 278.228V278.13C210.137 277.626 209.969 277.243 209.633 276.982C209.297 276.721 208.821 276.59 208.205 276.59H207.169V275.246H208.163ZM217.31 281.168C216.703 281.168 216.176 281.056 215.728 280.832C215.28 280.599 214.911 280.267 214.622 279.838C214.333 279.409 214.118 278.881 213.978 278.256C213.838 277.631 213.768 276.917 213.768 276.114C213.768 275.321 213.838 274.611 213.978 273.986C214.118 273.351 214.333 272.819 214.622 272.39C214.911 271.961 215.28 271.634 215.728 271.41C216.176 271.177 216.703 271.06 217.31 271.06C218.523 271.06 219.415 271.503 219.984 272.39C220.563 273.277 220.852 274.518 220.852 276.114C220.852 277.71 220.563 278.951 219.984 279.838C219.415 280.725 218.523 281.168 217.31 281.168ZM217.31 279.824C217.646 279.824 217.931 279.759 218.164 279.628C218.407 279.488 218.603 279.292 218.752 279.04C218.901 278.788 219.009 278.489 219.074 278.144C219.139 277.789 219.172 277.397 219.172 276.968V275.26C219.172 274.831 219.139 274.443 219.074 274.098C219.009 273.743 218.901 273.44 218.752 273.188C218.603 272.936 218.407 272.745 218.164 272.614C217.931 272.474 217.646 272.404 217.31 272.404C216.974 272.404 216.685 272.474 216.442 272.614C216.209 272.745 216.017 272.936 215.868 273.188C215.719 273.44 215.611 273.743 215.546 274.098C215.481 274.443 215.448 274.831 215.448 275.26V276.968C215.448 277.397 215.481 277.789 215.546 278.144C215.611 278.489 215.719 278.788 215.868 279.04C216.017 279.292 216.209 279.488 216.442 279.628C216.685 279.759 216.974 279.824 217.31 279.824Z" fill="#7A7585"/>
<path d="M172.069 281H165.433V279.488L168.555 276.702C169.05 276.254 169.428 275.829 169.689 275.428C169.96 275.017 170.095 274.588 170.095 274.14V273.958C170.095 273.482 169.951 273.109 169.661 272.838C169.381 272.567 168.999 272.432 168.513 272.432C168.243 272.432 168.005 272.474 167.799 272.558C167.603 272.633 167.431 272.74 167.281 272.88C167.132 273.02 167.006 273.183 166.903 273.37C166.81 273.557 166.735 273.757 166.679 273.972L165.293 273.44C165.396 273.132 165.536 272.838 165.713 272.558C165.891 272.269 166.115 272.012 166.385 271.788C166.656 271.564 166.973 271.387 167.337 271.256C167.711 271.125 168.145 271.06 168.639 271.06C169.134 271.06 169.577 271.135 169.969 271.284C170.361 271.424 170.688 271.625 170.949 271.886C171.22 272.138 171.425 272.441 171.565 272.796C171.705 273.151 171.775 273.538 171.775 273.958C171.775 274.35 171.715 274.714 171.593 275.05C171.472 275.386 171.304 275.703 171.089 276.002C170.875 276.301 170.623 276.585 170.333 276.856C170.053 277.127 169.755 277.402 169.437 277.682L167.141 279.656H172.069V281ZM180.726 274.868C180.726 275.577 180.619 276.245 180.404 276.87C180.189 277.495 179.914 278.069 179.578 278.592C179.242 279.115 178.864 279.581 178.444 279.992C178.033 280.403 177.627 280.739 177.226 281H175.126C175.677 280.599 176.171 280.211 176.61 279.838C177.049 279.465 177.431 279.082 177.758 278.69C178.085 278.298 178.355 277.883 178.57 277.444C178.794 277.005 178.967 276.525 179.088 276.002L178.99 275.974C178.887 276.17 178.766 276.357 178.626 276.534C178.495 276.702 178.337 276.851 178.15 276.982C177.973 277.113 177.767 277.215 177.534 277.29C177.301 277.365 177.03 277.402 176.722 277.402C176.311 277.402 175.929 277.332 175.574 277.192C175.229 277.052 174.925 276.851 174.664 276.59C174.412 276.319 174.211 276.002 174.062 275.638C173.922 275.265 173.852 274.845 173.852 274.378C173.852 273.893 173.931 273.445 174.09 273.034C174.258 272.623 174.491 272.273 174.79 271.984C175.089 271.695 175.448 271.471 175.868 271.312C176.288 271.144 176.759 271.06 177.282 271.06C177.823 271.06 178.304 271.149 178.724 271.326C179.153 271.503 179.513 271.76 179.802 272.096C180.101 272.423 180.329 272.819 180.488 273.286C180.647 273.753 180.726 274.28 180.726 274.868ZM177.282 276.128C177.851 276.128 178.295 275.979 178.612 275.68C178.929 275.372 179.088 274.924 179.088 274.336V274.14C179.088 273.552 178.929 273.109 178.612 272.81C178.295 272.502 177.851 272.348 177.282 272.348C176.713 272.348 176.269 272.502 175.952 272.81C175.635 273.109 175.476 273.552 175.476 274.14V274.336C175.476 274.924 175.635 275.372 175.952 275.68C176.269 275.979 176.713 276.128 177.282 276.128Z" fill="#7A7585"/>
<path d="M132.069 281H125.433V279.488L128.555 276.702C129.05 276.254 129.428 275.829 129.689 275.428C129.96 275.017 130.095 274.588 130.095 274.14V273.958C130.095 273.482 129.951 273.109 129.661 272.838C129.381 272.567 128.999 272.432 128.513 272.432C128.243 272.432 128.005 272.474 127.799 272.558C127.603 272.633 127.431 272.74 127.281 272.88C127.132 273.02 127.006 273.183 126.903 273.37C126.81 273.557 126.735 273.757 126.679 273.972L125.293 273.44C125.396 273.132 125.536 272.838 125.713 272.558C125.891 272.269 126.115 272.012 126.385 271.788C126.656 271.564 126.973 271.387 127.337 271.256C127.711 271.125 128.145 271.06 128.639 271.06C129.134 271.06 129.577 271.135 129.969 271.284C130.361 271.424 130.688 271.625 130.949 271.886C131.22 272.138 131.425 272.441 131.565 272.796C131.705 273.151 131.775 273.538 131.775 273.958C131.775 274.35 131.715 274.714 131.593 275.05C131.472 275.386 131.304 275.703 131.089 276.002C130.875 276.301 130.623 276.585 130.333 276.856C130.053 277.127 129.755 277.402 129.437 277.682L127.141 279.656H132.069V281ZM137.31 281.168C136.741 281.168 136.237 281.098 135.798 280.958C135.369 280.809 135.005 280.608 134.706 280.356C134.417 280.104 134.193 279.805 134.034 279.46C133.885 279.115 133.81 278.741 133.81 278.34C133.81 277.687 133.987 277.164 134.342 276.772C134.706 276.371 135.182 276.091 135.77 275.932V275.82C135.266 275.643 134.86 275.363 134.552 274.98C134.253 274.597 134.104 274.126 134.104 273.566C134.104 273.193 134.174 272.852 134.314 272.544C134.463 272.236 134.673 271.975 134.944 271.76C135.215 271.536 135.551 271.363 135.952 271.242C136.353 271.121 136.806 271.06 137.31 271.06C137.814 271.06 138.267 271.121 138.668 271.242C139.069 271.363 139.405 271.536 139.676 271.76C139.947 271.975 140.152 272.236 140.292 272.544C140.441 272.852 140.516 273.193 140.516 273.566C140.516 274.126 140.362 274.597 140.054 274.98C139.755 275.363 139.354 275.643 138.85 275.82V275.932C139.438 276.091 139.909 276.371 140.264 276.772C140.628 277.164 140.81 277.687 140.81 278.34C140.81 278.741 140.731 279.115 140.572 279.46C140.423 279.805 140.199 280.104 139.9 280.356C139.611 280.608 139.247 280.809 138.808 280.958C138.379 281.098 137.879 281.168 137.31 281.168ZM137.31 279.894C137.898 279.894 138.351 279.759 138.668 279.488C138.995 279.217 139.158 278.839 139.158 278.354V278.074C139.158 277.589 138.995 277.211 138.668 276.94C138.351 276.669 137.898 276.534 137.31 276.534C136.722 276.534 136.265 276.669 135.938 276.94C135.621 277.211 135.462 277.589 135.462 278.074V278.354C135.462 278.839 135.621 279.217 135.938 279.488C136.265 279.759 136.722 279.894 137.31 279.894ZM137.31 275.316C137.851 275.316 138.262 275.199 138.542 274.966C138.831 274.733 138.976 274.392 138.976 273.944V273.706C138.976 273.258 138.831 272.917 138.542 272.684C138.262 272.451 137.851 272.334 137.31 272.334C136.769 272.334 136.353 272.451 136.064 272.684C135.784 272.917 135.644 273.258 135.644 273.706V273.944C135.644 274.392 135.784 274.733 136.064 274.966C136.353 275.199 136.769 275.316 137.31 275.316Z" fill="#7A7585"/>
<path d="M92.0695 281H85.4335V279.488L88.5555 276.702C89.0501 276.254 89.4281 275.829 89.6895 275.428C89.9601 275.017 90.0955 274.588 90.0955 274.14V273.958C90.0955 273.482 89.9508 273.109 89.6615 272.838C89.3815 272.567 88.9988 272.432 88.5135 272.432C88.2428 272.432 88.0048 272.474 87.7995 272.558C87.6035 272.633 87.4308 272.74 87.2815 272.88C87.1321 273.02 87.0061 273.183 86.9035 273.37C86.8101 273.557 86.7355 273.757 86.6795 273.972L85.2935 273.44C85.3961 273.132 85.5361 272.838 85.7135 272.558C85.8908 272.269 86.1148 272.012 86.3855 271.788C86.6561 271.564 86.9735 271.387 87.3375 271.256C87.7108 271.125 88.1448 271.06 88.6395 271.06C89.1341 271.06 89.5775 271.135 89.9695 271.284C90.3615 271.424 90.6881 271.625 90.9495 271.886C91.2201 272.138 91.4255 272.441 91.5655 272.796C91.7055 273.151 91.7755 273.538 91.7755 273.958C91.7755 274.35 91.7148 274.714 91.5935 275.05C91.4721 275.386 91.3041 275.703 91.0895 276.002C90.8748 276.301 90.6228 276.585 90.3335 276.856C90.0535 277.127 89.7548 277.402 89.4375 277.682L87.1415 279.656H92.0695V281ZM95.504 281L99.046 272.53H95.35V274.336H93.992V271.228H100.614V272.6L97.17 281H95.504Z" fill="#7A7585"/>
<path d="M52.0695 281H45.4335V279.488L48.5555 276.702C49.0501 276.254 49.4281 275.829 49.6895 275.428C49.9601 275.017 50.0955 274.588 50.0955 274.14V273.958C50.0955 273.482 49.9508 273.109 49.6615 272.838C49.3815 272.567 48.9988 272.432 48.5135 272.432C48.2428 272.432 48.0048 272.474 47.7995 272.558C47.6035 272.633 47.4308 272.74 47.2815 272.88C47.1321 273.02 47.0061 273.183 46.9035 273.37C46.8101 273.557 46.7355 273.757 46.6795 273.972L45.2935 273.44C45.3961 273.132 45.5361 272.838 45.7135 272.558C45.8908 272.269 46.1148 272.012 46.3855 271.788C46.6561 271.564 46.9735 271.387 47.3375 271.256C47.7108 271.125 48.1448 271.06 48.6395 271.06C49.1341 271.06 49.5775 271.135 49.9695 271.284C50.3615 271.424 50.6881 271.625 50.9495 271.886C51.2201 272.138 51.4255 272.441 51.5655 272.796C51.7055 273.151 51.7755 273.538 51.7755 273.958C51.7755 274.35 51.7148 274.714 51.5935 275.05C51.4721 275.386 51.3041 275.703 51.0895 276.002C50.8748 276.301 50.6228 276.585 50.3335 276.856C50.0535 277.127 49.7548 277.402 49.4375 277.682L47.1415 279.656H52.0695V281ZM57.338 281.168C56.7967 281.168 56.3113 281.079 55.882 280.902C55.462 280.725 55.1027 280.473 54.804 280.146C54.5147 279.81 54.2907 279.409 54.132 278.942C53.9733 278.475 53.894 277.948 53.894 277.36C53.894 276.651 54.0013 275.983 54.216 275.358C54.4307 274.733 54.706 274.159 55.042 273.636C55.378 273.113 55.7513 272.651 56.162 272.25C56.582 271.839 56.9927 271.499 57.394 271.228H59.494C58.9433 271.629 58.4487 272.017 58.01 272.39C57.5713 272.763 57.1887 273.146 56.862 273.538C56.5353 273.93 56.26 274.345 56.036 274.784C55.8213 275.223 55.6533 275.703 55.532 276.226L55.63 276.254C55.7327 276.058 55.8493 275.876 55.98 275.708C56.12 275.531 56.2787 275.377 56.456 275.246C56.6427 275.115 56.8527 275.013 57.086 274.938C57.3193 274.863 57.59 274.826 57.898 274.826C58.3087 274.826 58.6867 274.896 59.032 275.036C59.3867 275.176 59.69 275.381 59.942 275.652C60.2033 275.913 60.404 276.231 60.544 276.604C60.6933 276.977 60.768 277.393 60.768 277.85C60.768 278.345 60.684 278.797 60.516 279.208C60.3573 279.609 60.1287 279.955 59.83 280.244C59.5313 280.533 59.1673 280.762 58.738 280.93C58.318 281.089 57.8513 281.168 57.338 281.168ZM57.338 279.88C57.9073 279.88 58.3507 279.731 58.668 279.432C58.9853 279.124 59.144 278.676 59.144 278.088V277.892C59.144 277.304 58.9853 276.861 58.668 276.562C58.3507 276.254 57.9073 276.1 57.338 276.1C56.7687 276.1 56.3253 276.254 56.008 276.562C55.6907 276.861 55.532 277.304 55.532 277.892V278.088C55.532 278.676 55.6907 279.124 56.008 279.432C56.3253 279.731 56.7687 279.88 57.338 279.88Z" fill="#7A7585"/>
<path d="M292.069 239H285.433V237.488L288.555 234.702C289.05 234.254 289.428 233.829 289.689 233.428C289.96 233.017 290.095 232.588 290.095 232.14V231.958C290.095 231.482 289.951 231.109 289.661 230.838C289.381 230.567 288.999 230.432 288.513 230.432C288.243 230.432 288.005 230.474 287.799 230.558C287.603 230.633 287.431 230.74 287.281 230.88C287.132 231.02 287.006 231.183 286.903 231.37C286.81 231.557 286.735 231.757 286.679 231.972L285.293 231.44C285.396 231.132 285.536 230.838 285.713 230.558C285.891 230.269 286.115 230.012 286.385 229.788C286.656 229.564 286.973 229.387 287.337 229.256C287.711 229.125 288.145 229.06 288.639 229.06C289.134 229.06 289.577 229.135 289.969 229.284C290.361 229.424 290.688 229.625 290.949 229.886C291.22 230.138 291.425 230.441 291.565 230.796C291.705 231.151 291.775 231.538 291.775 231.958C291.775 232.35 291.715 232.714 291.593 233.05C291.472 233.386 291.304 233.703 291.089 234.002C290.875 234.301 290.623 234.585 290.333 234.856C290.053 235.127 289.755 235.402 289.437 235.682L287.141 237.656H292.069V239ZM300.222 230.6H295.882L295.63 234.058H295.728C295.84 233.862 295.957 233.689 296.078 233.54C296.199 233.381 296.339 233.246 296.498 233.134C296.657 233.022 296.839 232.938 297.044 232.882C297.249 232.817 297.492 232.784 297.772 232.784C298.192 232.784 298.579 232.854 298.934 232.994C299.298 233.134 299.611 233.335 299.872 233.596C300.143 233.857 300.353 234.179 300.502 234.562C300.651 234.935 300.726 235.36 300.726 235.836C300.726 236.321 300.647 236.769 300.488 237.18C300.339 237.591 300.115 237.945 299.816 238.244C299.517 238.533 299.149 238.762 298.71 238.93C298.281 239.089 297.791 239.168 297.24 239.168C296.801 239.168 296.414 239.117 296.078 239.014C295.742 238.921 295.443 238.795 295.182 238.636C294.93 238.468 294.706 238.281 294.51 238.076C294.323 237.861 294.155 237.642 294.006 237.418L295.154 236.508C295.275 236.704 295.401 236.881 295.532 237.04C295.663 237.199 295.812 237.339 295.98 237.46C296.148 237.581 296.335 237.675 296.54 237.74C296.755 237.805 296.997 237.838 297.268 237.838C297.847 237.838 298.29 237.679 298.598 237.362C298.915 237.045 299.074 236.606 299.074 236.046V235.878C299.074 235.318 298.915 234.879 298.598 234.562C298.29 234.245 297.847 234.086 297.268 234.086C296.848 234.086 296.512 234.165 296.26 234.324C296.008 234.483 295.793 234.66 295.616 234.856L294.314 234.674L294.678 229.228H300.222V230.6Z" fill="#7A7585"/>
<path d="M252.069 239H245.433V237.488L248.555 234.702C249.05 234.254 249.428 233.829 249.689 233.428C249.96 233.017 250.095 232.588 250.095 232.14V231.958C250.095 231.482 249.951 231.109 249.661 230.838C249.381 230.567 248.999 230.432 248.513 230.432C248.243 230.432 248.005 230.474 247.799 230.558C247.603 230.633 247.431 230.74 247.281 230.88C247.132 231.02 247.006 231.183 246.903 231.37C246.81 231.557 246.735 231.757 246.679 231.972L245.293 231.44C245.396 231.132 245.536 230.838 245.713 230.558C245.891 230.269 246.115 230.012 246.385 229.788C246.656 229.564 246.973 229.387 247.337 229.256C247.711 229.125 248.145 229.06 248.639 229.06C249.134 229.06 249.577 229.135 249.969 229.284C250.361 229.424 250.688 229.625 250.949 229.886C251.22 230.138 251.425 230.441 251.565 230.796C251.705 231.151 251.775 231.538 251.775 231.958C251.775 232.35 251.715 232.714 251.593 233.05C251.472 233.386 251.304 233.703 251.089 234.002C250.875 234.301 250.623 234.585 250.333 234.856C250.053 235.127 249.755 235.402 249.437 235.682L247.141 237.656H252.069V239ZM258.136 239V237.096H253.6V235.738L257.562 229.228H259.634V235.85H260.964V237.096H259.634V239H258.136ZM254.944 235.85H258.136V230.67H258.038L254.944 235.85Z" fill="#7A7585"/>
<path d="M212.069 239H205.433V237.488L208.555 234.702C209.05 234.254 209.428 233.829 209.689 233.428C209.96 233.017 210.095 232.588 210.095 232.14V231.958C210.095 231.482 209.951 231.109 209.661 230.838C209.381 230.567 208.999 230.432 208.513 230.432C208.243 230.432 208.005 230.474 207.799 230.558C207.603 230.633 207.431 230.74 207.281 230.88C207.132 231.02 207.006 231.183 206.903 231.37C206.81 231.557 206.735 231.757 206.679 231.972L205.293 231.44C205.396 231.132 205.536 230.838 205.713 230.558C205.891 230.269 206.115 230.012 206.385 229.788C206.656 229.564 206.973 229.387 207.337 229.256C207.711 229.125 208.145 229.06 208.639 229.06C209.134 229.06 209.577 229.135 209.969 229.284C210.361 229.424 210.688 229.625 210.949 229.886C211.22 230.138 211.425 230.441 211.565 230.796C211.705 231.151 211.775 231.538 211.775 231.958C211.775 232.35 211.715 232.714 211.593 233.05C211.472 233.386 211.304 233.703 211.089 234.002C210.875 234.301 210.623 234.585 210.333 234.856C210.053 235.127 209.755 235.402 209.437 235.682L207.141 237.656H212.069V239ZM216.778 233.246C217.385 233.246 217.833 233.12 218.122 232.868C218.411 232.607 218.556 232.275 218.556 231.874V231.776C218.556 231.328 218.416 230.987 218.136 230.754C217.856 230.511 217.478 230.39 217.002 230.39C216.535 230.39 216.139 230.497 215.812 230.712C215.485 230.917 215.21 231.207 214.986 231.58L213.936 230.67C214.085 230.455 214.253 230.25 214.44 230.054C214.627 229.858 214.846 229.69 215.098 229.55C215.35 229.401 215.635 229.284 215.952 229.2C216.269 229.107 216.633 229.06 217.044 229.06C217.501 229.06 217.926 229.116 218.318 229.228C218.71 229.34 219.046 229.508 219.326 229.732C219.606 229.947 219.825 230.213 219.984 230.53C220.143 230.838 220.222 231.188 220.222 231.58C220.222 231.888 220.171 232.168 220.068 232.42C219.975 232.672 219.839 232.896 219.662 233.092C219.494 233.279 219.293 233.433 219.06 233.554C218.836 233.675 218.598 233.764 218.346 233.82V233.89C218.626 233.946 218.887 234.039 219.13 234.17C219.382 234.291 219.601 234.455 219.788 234.66C219.975 234.856 220.119 235.094 220.222 235.374C220.334 235.645 220.39 235.957 220.39 236.312C220.39 236.741 220.306 237.133 220.138 237.488C219.97 237.833 219.732 238.132 219.424 238.384C219.125 238.636 218.761 238.832 218.332 238.972C217.903 239.103 217.427 239.168 216.904 239.168C216.447 239.168 216.045 239.117 215.7 239.014C215.355 238.921 215.047 238.795 214.776 238.636C214.515 238.468 214.281 238.281 214.076 238.076C213.88 237.861 213.707 237.642 213.558 237.418L214.72 236.508C214.841 236.704 214.967 236.886 215.098 237.054C215.238 237.213 215.392 237.353 215.56 237.474C215.737 237.586 215.933 237.675 216.148 237.74C216.372 237.805 216.624 237.838 216.904 237.838C217.501 237.838 217.959 237.698 218.276 237.418C218.593 237.129 218.752 236.732 218.752 236.228V236.13C218.752 235.626 218.584 235.243 218.248 234.982C217.912 234.721 217.436 234.59 216.82 234.59H215.784V233.246H216.778Z" fill="#7A7585"/>
<path d="M172.069 239H165.433V237.488L168.555 234.702C169.05 234.254 169.428 233.829 169.689 233.428C169.96 233.017 170.095 232.588 170.095 232.14V231.958C170.095 231.482 169.951 231.109 169.661 230.838C169.381 230.567 168.999 230.432 168.513 230.432C168.243 230.432 168.005 230.474 167.799 230.558C167.603 230.633 167.431 230.74 167.281 230.88C167.132 231.02 167.006 231.183 166.903 231.37C166.81 231.557 166.735 231.757 166.679 231.972L165.293 231.44C165.396 231.132 165.536 230.838 165.713 230.558C165.891 230.269 166.115 230.012 166.385 229.788C166.656 229.564 166.973 229.387 167.337 229.256C167.711 229.125 168.145 229.06 168.639 229.06C169.134 229.06 169.577 229.135 169.969 229.284C170.361 229.424 170.688 229.625 170.949 229.886C171.22 230.138 171.425 230.441 171.565 230.796C171.705 231.151 171.775 231.538 171.775 231.958C171.775 232.35 171.715 232.714 171.593 233.05C171.472 233.386 171.304 233.703 171.089 234.002C170.875 234.301 170.623 234.585 170.333 234.856C170.053 235.127 169.755 235.402 169.437 235.682L167.141 237.656H172.069V239ZM180.684 239H174.048V237.488L177.17 234.702C177.665 234.254 178.043 233.829 178.304 233.428C178.575 233.017 178.71 232.588 178.71 232.14V231.958C178.71 231.482 178.565 231.109 178.276 230.838C177.996 230.567 177.613 230.432 177.128 230.432C176.857 230.432 176.619 230.474 176.414 230.558C176.218 230.633 176.045 230.74 175.896 230.88C175.747 231.02 175.621 231.183 175.518 231.37C175.425 231.557 175.35 231.757 175.294 231.972L173.908 231.44C174.011 231.132 174.151 230.838 174.328 230.558C174.505 230.269 174.729 230.012 175 229.788C175.271 229.564 175.588 229.387 175.952 229.256C176.325 229.125 176.759 229.06 177.254 229.06C177.749 229.06 178.192 229.135 178.584 229.284C178.976 229.424 179.303 229.625 179.564 229.886C179.835 230.138 180.04 230.441 180.18 230.796C180.32 231.151 180.39 231.538 180.39 231.958C180.39 232.35 180.329 232.714 180.208 233.05C180.087 233.386 179.919 233.703 179.704 234.002C179.489 234.301 179.237 234.585 178.948 234.856C178.668 235.127 178.369 235.402 178.052 235.682L175.756 237.656H180.684V239Z" fill="#7A7585"/>
<path d="M132.069 239H125.433V237.488L128.555 234.702C129.05 234.254 129.428 233.829 129.689 233.428C129.96 233.017 130.095 232.588 130.095 232.14V231.958C130.095 231.482 129.951 231.109 129.661 230.838C129.381 230.567 128.999 230.432 128.513 230.432C128.243 230.432 128.005 230.474 127.799 230.558C127.603 230.633 127.431 230.74 127.281 230.88C127.132 231.02 127.006 231.183 126.903 231.37C126.81 231.557 126.735 231.757 126.679 231.972L125.293 231.44C125.396 231.132 125.536 230.838 125.713 230.558C125.891 230.269 126.115 230.012 126.385 229.788C126.656 229.564 126.973 229.387 127.337 229.256C127.711 229.125 128.145 229.06 128.639 229.06C129.134 229.06 129.577 229.135 129.969 229.284C130.361 229.424 130.688 229.625 130.949 229.886C131.22 230.138 131.425 230.441 131.565 230.796C131.705 231.151 131.775 231.538 131.775 231.958C131.775 232.35 131.715 232.714 131.593 233.05C131.472 233.386 131.304 233.703 131.089 234.002C130.875 234.301 130.623 234.585 130.333 234.856C130.053 235.127 129.755 235.402 129.437 235.682L127.141 237.656H132.069V239ZM134.342 239V237.684H137.086V230.376H136.974L134.706 232.798L133.74 231.93L136.232 229.228H138.64V237.684H141.02V239H134.342Z" fill="#7A7585"/>
<path d="M92.0695 239H85.4335V237.488L88.5555 234.702C89.0501 234.254 89.4281 233.829 89.6895 233.428C89.9601 233.017 90.0955 232.588 90.0955 232.14V231.958C90.0955 231.482 89.9508 231.109 89.6615 230.838C89.3815 230.567 88.9988 230.432 88.5135 230.432C88.2428 230.432 88.0048 230.474 87.7995 230.558C87.6035 230.633 87.4308 230.74 87.2815 230.88C87.1321 231.02 87.0061 231.183 86.9035 231.37C86.8101 231.557 86.7355 231.757 86.6795 231.972L85.2935 231.44C85.3961 231.132 85.5361 230.838 85.7135 230.558C85.8908 230.269 86.1148 230.012 86.3855 229.788C86.6561 229.564 86.9735 229.387 87.3375 229.256C87.7108 229.125 88.1448 229.06 88.6395 229.06C89.1341 229.06 89.5775 229.135 89.9695 229.284C90.3615 229.424 90.6881 229.625 90.9495 229.886C91.2201 230.138 91.4255 230.441 91.5655 230.796C91.7055 231.151 91.7755 231.538 91.7755 231.958C91.7755 232.35 91.7148 232.714 91.5935 233.05C91.4721 233.386 91.3041 233.703 91.0895 234.002C90.8748 234.301 90.6228 234.585 90.3335 234.856C90.0535 235.127 89.7548 235.402 89.4375 235.682L87.1415 237.656H92.0695V239ZM97.31 239.168C96.7033 239.168 96.176 239.056 95.728 238.832C95.28 238.599 94.9113 238.267 94.622 237.838C94.3327 237.409 94.118 236.881 93.978 236.256C93.838 235.631 93.768 234.917 93.768 234.114C93.768 233.321 93.838 232.611 93.978 231.986C94.118 231.351 94.3327 230.819 94.622 230.39C94.9113 229.961 95.28 229.634 95.728 229.41C96.176 229.177 96.7033 229.06 97.31 229.06C98.5233 229.06 99.4147 229.503 99.984 230.39C100.563 231.277 100.852 232.518 100.852 234.114C100.852 235.71 100.563 236.951 99.984 237.838C99.4147 238.725 98.5233 239.168 97.31 239.168ZM97.31 237.824C97.646 237.824 97.9307 237.759 98.164 237.628C98.4067 237.488 98.6027 237.292 98.752 237.04C98.9013 236.788 99.0087 236.489 99.074 236.144C99.1393 235.789 99.172 235.397 99.172 234.968V233.26C99.172 232.831 99.1393 232.443 99.074 232.098C99.0087 231.743 98.9013 231.44 98.752 231.188C98.6027 230.936 98.4067 230.745 98.164 230.614C97.9307 230.474 97.646 230.404 97.31 230.404C96.974 230.404 96.6847 230.474 96.442 230.614C96.2087 230.745 96.0173 230.936 95.868 231.188C95.7187 231.44 95.6113 231.743 95.546 232.098C95.4807 232.443 95.448 232.831 95.448 233.26V234.968C95.448 235.397 95.4807 235.789 95.546 236.144C95.6113 236.489 95.7187 236.788 95.868 237.04C96.0173 237.292 96.2087 237.488 96.442 237.628C96.6847 237.759 96.974 237.824 97.31 237.824Z" fill="#7A7585"/>
<path d="M45.7275 239V237.684H48.4715V230.376H48.3595L46.0915 232.798L45.1255 231.93L47.6175 229.228H50.0255V237.684H52.4055V239H45.7275ZM60.726 232.868C60.726 233.577 60.6187 234.245 60.404 234.87C60.1893 235.495 59.914 236.069 59.578 236.592C59.242 237.115 58.864 237.581 58.444 237.992C58.0333 238.403 57.6273 238.739 57.226 239H55.126C55.6767 238.599 56.1713 238.211 56.61 237.838C57.0487 237.465 57.4313 237.082 57.758 236.69C58.0847 236.298 58.3553 235.883 58.57 235.444C58.794 235.005 58.9667 234.525 59.088 234.002L58.99 233.974C58.8873 234.17 58.766 234.357 58.626 234.534C58.4953 234.702 58.3367 234.851 58.15 234.982C57.9727 235.113 57.7673 235.215 57.534 235.29C57.3007 235.365 57.03 235.402 56.722 235.402C56.3113 235.402 55.9287 235.332 55.574 235.192C55.2287 235.052 54.9253 234.851 54.664 234.59C54.412 234.319 54.2113 234.002 54.062 233.638C53.922 233.265 53.852 232.845 53.852 232.378C53.852 231.893 53.9313 231.445 54.09 231.034C54.258 230.623 54.4913 230.273 54.79 229.984C55.0887 229.695 55.448 229.471 55.868 229.312C56.288 229.144 56.7593 229.06 57.282 229.06C57.8233 229.06 58.304 229.149 58.724 229.326C59.1533 229.503 59.5127 229.76 59.802 230.096C60.1007 230.423 60.3293 230.819 60.488 231.286C60.6467 231.753 60.726 232.28 60.726 232.868ZM57.282 234.128C57.8513 234.128 58.2947 233.979 58.612 233.68C58.9293 233.372 59.088 232.924 59.088 232.336V232.14C59.088 231.552 58.9293 231.109 58.612 230.81C58.2947 230.502 57.8513 230.348 57.282 230.348C56.7127 230.348 56.2693 230.502 55.952 230.81C55.6347 231.109 55.476 231.552 55.476 232.14V232.336C55.476 232.924 55.6347 233.372 55.952 233.68C56.2693 233.979 56.7127 234.128 57.282 234.128Z" fill="#7A7585"/>
<path d="M285.727 197V195.684H288.471V188.376H288.359L286.091 190.798L285.125 189.93L287.617 187.228H290.025V195.684H292.405V197H285.727ZM297.31 197.168C296.741 197.168 296.237 197.098 295.798 196.958C295.369 196.809 295.005 196.608 294.706 196.356C294.417 196.104 294.193 195.805 294.034 195.46C293.885 195.115 293.81 194.741 293.81 194.34C293.81 193.687 293.987 193.164 294.342 192.772C294.706 192.371 295.182 192.091 295.77 191.932V191.82C295.266 191.643 294.86 191.363 294.552 190.98C294.253 190.597 294.104 190.126 294.104 189.566C294.104 189.193 294.174 188.852 294.314 188.544C294.463 188.236 294.673 187.975 294.944 187.76C295.215 187.536 295.551 187.363 295.952 187.242C296.353 187.121 296.806 187.06 297.31 187.06C297.814 187.06 298.267 187.121 298.668 187.242C299.069 187.363 299.405 187.536 299.676 187.76C299.947 187.975 300.152 188.236 300.292 188.544C300.441 188.852 300.516 189.193 300.516 189.566C300.516 190.126 300.362 190.597 300.054 190.98C299.755 191.363 299.354 191.643 298.85 191.82V191.932C299.438 192.091 299.909 192.371 300.264 192.772C300.628 193.164 300.81 193.687 300.81 194.34C300.81 194.741 300.731 195.115 300.572 195.46C300.423 195.805 300.199 196.104 299.9 196.356C299.611 196.608 299.247 196.809 298.808 196.958C298.379 197.098 297.879 197.168 297.31 197.168ZM297.31 195.894C297.898 195.894 298.351 195.759 298.668 195.488C298.995 195.217 299.158 194.839 299.158 194.354V194.074C299.158 193.589 298.995 193.211 298.668 192.94C298.351 192.669 297.898 192.534 297.31 192.534C296.722 192.534 296.265 192.669 295.938 192.94C295.621 193.211 295.462 193.589 295.462 194.074V194.354C295.462 194.839 295.621 195.217 295.938 195.488C296.265 195.759 296.722 195.894 297.31 195.894ZM297.31 191.316C297.851 191.316 298.262 191.199 298.542 190.966C298.831 190.733 298.976 190.392 298.976 189.944V189.706C298.976 189.258 298.831 188.917 298.542 188.684C298.262 188.451 297.851 188.334 297.31 188.334C296.769 188.334 296.353 188.451 296.064 188.684C295.784 188.917 295.644 189.258 295.644 189.706V189.944C295.644 190.392 295.784 190.733 296.064 190.966C296.353 191.199 296.769 191.316 297.31 191.316Z" fill="#7A7585"/>
<path d="M245.727 197V195.684H248.471V188.376H248.359L246.091 190.798L245.125 189.93L247.617 187.228H250.025V195.684H252.405V197H245.727ZM255.504 197L259.046 188.53H255.35V190.336H253.992V187.228H260.614V188.6L257.17 197H255.504Z" fill="#7A7585"/>
<path d="M205.727 197V195.684H208.471V188.376H208.359L206.091 190.798L205.125 189.93L207.617 187.228H210.025V195.684H212.405V197H205.727ZM217.338 197.168C216.797 197.168 216.311 197.079 215.882 196.902C215.462 196.725 215.103 196.473 214.804 196.146C214.515 195.81 214.291 195.409 214.132 194.942C213.973 194.475 213.894 193.948 213.894 193.36C213.894 192.651 214.001 191.983 214.216 191.358C214.431 190.733 214.706 190.159 215.042 189.636C215.378 189.113 215.751 188.651 216.162 188.25C216.582 187.839 216.993 187.499 217.394 187.228H219.494C218.943 187.629 218.449 188.017 218.01 188.39C217.571 188.763 217.189 189.146 216.862 189.538C216.535 189.93 216.26 190.345 216.036 190.784C215.821 191.223 215.653 191.703 215.532 192.226L215.63 192.254C215.733 192.058 215.849 191.876 215.98 191.708C216.12 191.531 216.279 191.377 216.456 191.246C216.643 191.115 216.853 191.013 217.086 190.938C217.319 190.863 217.59 190.826 217.898 190.826C218.309 190.826 218.687 190.896 219.032 191.036C219.387 191.176 219.69 191.381 219.942 191.652C220.203 191.913 220.404 192.231 220.544 192.604C220.693 192.977 220.768 193.393 220.768 193.85C220.768 194.345 220.684 194.797 220.516 195.208C220.357 195.609 220.129 195.955 219.83 196.244C219.531 196.533 219.167 196.762 218.738 196.93C218.318 197.089 217.851 197.168 217.338 197.168ZM217.338 195.88C217.907 195.88 218.351 195.731 218.668 195.432C218.985 195.124 219.144 194.676 219.144 194.088V193.892C219.144 193.304 218.985 192.861 218.668 192.562C218.351 192.254 217.907 192.1 217.338 192.1C216.769 192.1 216.325 192.254 216.008 192.562C215.691 192.861 215.532 193.304 215.532 193.892V194.088C215.532 194.676 215.691 195.124 216.008 195.432C216.325 195.731 216.769 195.88 217.338 195.88Z" fill="#7A7585"/>
<path d="M165.727 197V195.684H168.471V188.376H168.359L166.091 190.798L165.125 189.93L167.617 187.228H170.025V195.684H172.405V197H165.727ZM180.222 188.6H175.882L175.63 192.058H175.728C175.84 191.862 175.957 191.689 176.078 191.54C176.199 191.381 176.339 191.246 176.498 191.134C176.657 191.022 176.839 190.938 177.044 190.882C177.249 190.817 177.492 190.784 177.772 190.784C178.192 190.784 178.579 190.854 178.934 190.994C179.298 191.134 179.611 191.335 179.872 191.596C180.143 191.857 180.353 192.179 180.502 192.562C180.651 192.935 180.726 193.36 180.726 193.836C180.726 194.321 180.647 194.769 180.488 195.18C180.339 195.591 180.115 195.945 179.816 196.244C179.517 196.533 179.149 196.762 178.71 196.93C178.281 197.089 177.791 197.168 177.24 197.168C176.801 197.168 176.414 197.117 176.078 197.014C175.742 196.921 175.443 196.795 175.182 196.636C174.93 196.468 174.706 196.281 174.51 196.076C174.323 195.861 174.155 195.642 174.006 195.418L175.154 194.508C175.275 194.704 175.401 194.881 175.532 195.04C175.663 195.199 175.812 195.339 175.98 195.46C176.148 195.581 176.335 195.675 176.54 195.74C176.755 195.805 176.997 195.838 177.268 195.838C177.847 195.838 178.29 195.679 178.598 195.362C178.915 195.045 179.074 194.606 179.074 194.046V193.878C179.074 193.318 178.915 192.879 178.598 192.562C178.29 192.245 177.847 192.086 177.268 192.086C176.848 192.086 176.512 192.165 176.26 192.324C176.008 192.483 175.793 192.66 175.616 192.856L174.314 192.674L174.678 187.228H180.222V188.6Z" fill="#7A7585"/>
<path d="M125.727 197V195.684H128.471V188.376H128.359L126.091 190.798L125.125 189.93L127.617 187.228H130.025V195.684H132.405V197H125.727ZM138.136 197V195.096H133.6V193.738L137.562 187.228H139.634V193.85H140.964V195.096H139.634V197H138.136ZM134.944 193.85H138.136V188.67H138.038L134.944 193.85Z" fill="#7A7585"/>
<path d="M85.7275 197V195.684H88.4715V188.376H88.3595L86.0915 190.798L85.1255 189.93L87.6175 187.228H90.0255V195.684H92.4055V197H85.7275ZM96.778 191.246C97.3847 191.246 97.8327 191.12 98.122 190.868C98.4113 190.607 98.556 190.275 98.556 189.874V189.776C98.556 189.328 98.416 188.987 98.136 188.754C97.856 188.511 97.478 188.39 97.002 188.39C96.5353 188.39 96.1387 188.497 95.812 188.712C95.4853 188.917 95.21 189.207 94.986 189.58L93.936 188.67C94.0853 188.455 94.2533 188.25 94.44 188.054C94.6267 187.858 94.846 187.69 95.098 187.55C95.35 187.401 95.6347 187.284 95.952 187.2C96.2693 187.107 96.6333 187.06 97.044 187.06C97.5013 187.06 97.926 187.116 98.318 187.228C98.71 187.34 99.046 187.508 99.326 187.732C99.606 187.947 99.8253 188.213 99.984 188.53C100.143 188.838 100.222 189.188 100.222 189.58C100.222 189.888 100.171 190.168 100.068 190.42C99.9747 190.672 99.8393 190.896 99.662 191.092C99.494 191.279 99.2933 191.433 99.06 191.554C98.836 191.675 98.598 191.764 98.346 191.82V191.89C98.626 191.946 98.8873 192.039 99.13 192.17C99.382 192.291 99.6013 192.455 99.788 192.66C99.9747 192.856 100.119 193.094 100.222 193.374C100.334 193.645 100.39 193.957 100.39 194.312C100.39 194.741 100.306 195.133 100.138 195.488C99.97 195.833 99.732 196.132 99.424 196.384C99.1253 196.636 98.7613 196.832 98.332 196.972C97.9027 197.103 97.4267 197.168 96.904 197.168C96.4467 197.168 96.0453 197.117 95.7 197.014C95.3547 196.921 95.0467 196.795 94.776 196.636C94.5147 196.468 94.2813 196.281 94.076 196.076C93.88 195.861 93.7073 195.642 93.558 195.418L94.72 194.508C94.8413 194.704 94.9673 194.886 95.098 195.054C95.238 195.213 95.392 195.353 95.56 195.474C95.7373 195.586 95.9333 195.675 96.148 195.74C96.372 195.805 96.624 195.838 96.904 195.838C97.5013 195.838 97.9587 195.698 98.276 195.418C98.5933 195.129 98.752 194.732 98.752 194.228V194.13C98.752 193.626 98.584 193.243 98.248 192.982C97.912 192.721 97.436 192.59 96.82 192.59H95.784V191.246H96.778Z" fill="#7A7585"/>
<path d="M45.7275 197V195.684H48.4715V188.376H48.3595L46.0915 190.798L45.1255 189.93L47.6175 187.228H50.0255V195.684H52.4055V197H45.7275ZM60.684 197H54.048V195.488L57.17 192.702C57.6647 192.254 58.0427 191.829 58.304 191.428C58.5747 191.017 58.71 190.588 58.71 190.14V189.958C58.71 189.482 58.5653 189.109 58.276 188.838C57.996 188.567 57.6133 188.432 57.128 188.432C56.8573 188.432 56.6193 188.474 56.414 188.558C56.218 188.633 56.0453 188.74 55.896 188.88C55.7467 189.02 55.6207 189.183 55.518 189.37C55.4247 189.557 55.35 189.757 55.294 189.972L53.908 189.44C54.0107 189.132 54.1507 188.838 54.328 188.558C54.5053 188.269 54.7293 188.012 55 187.788C55.2707 187.564 55.588 187.387 55.952 187.256C56.3253 187.125 56.7593 187.06 57.254 187.06C57.7487 187.06 58.192 187.135 58.584 187.284C58.976 187.424 59.3027 187.625 59.564 187.886C59.8347 188.138 60.04 188.441 60.18 188.796C60.32 189.151 60.39 189.538 60.39 189.958C60.39 190.35 60.3293 190.714 60.208 191.05C60.0867 191.386 59.9187 191.703 59.704 192.002C59.4893 192.301 59.2373 192.585 58.948 192.856C58.668 193.127 58.3693 193.402 58.052 193.682L55.756 195.656H60.684V197Z" fill="#7A7585"/>
<path d="M285.727 155V153.684H288.471V146.376H288.359L286.091 148.798L285.125 147.93L287.617 145.228H290.025V153.684H292.405V155H285.727ZM294.342 155V153.684H297.086V146.376H296.974L294.706 148.798L293.74 147.93L296.232 145.228H298.64V153.684H301.02V155H294.342Z" fill="#7A7585"/>
<circle cx="253" cy="150" r="16" fill="url(#paint0_linear)"/>
<path d="M245.727 155V153.684H248.471V146.376H248.359L246.091 148.798L245.125 147.93L247.617 145.228H250.025V153.684H252.405V155H245.727ZM257.31 155.168C256.703 155.168 256.176 155.056 255.728 154.832C255.28 154.599 254.911 154.267 254.622 153.838C254.333 153.409 254.118 152.881 253.978 152.256C253.838 151.631 253.768 150.917 253.768 150.114C253.768 149.321 253.838 148.611 253.978 147.986C254.118 147.351 254.333 146.819 254.622 146.39C254.911 145.961 255.28 145.634 255.728 145.41C256.176 145.177 256.703 145.06 257.31 145.06C258.523 145.06 259.415 145.503 259.984 146.39C260.563 147.277 260.852 148.518 260.852 150.114C260.852 151.71 260.563 152.951 259.984 153.838C259.415 154.725 258.523 155.168 257.31 155.168ZM257.31 153.824C257.646 153.824 257.931 153.759 258.164 153.628C258.407 153.488 258.603 153.292 258.752 153.04C258.901 152.788 259.009 152.489 259.074 152.144C259.139 151.789 259.172 151.397 259.172 150.968V149.26C259.172 148.831 259.139 148.443 259.074 148.098C259.009 147.743 258.901 147.44 258.752 147.188C258.603 146.936 258.407 146.745 258.164 146.614C257.931 146.474 257.646 146.404 257.31 146.404C256.974 146.404 256.685 146.474 256.442 146.614C256.209 146.745 256.017 146.936 255.868 147.188C255.719 147.44 255.611 147.743 255.546 148.098C255.481 148.443 255.448 148.831 255.448 149.26V150.968C255.448 151.397 255.481 151.789 255.546 152.144C255.611 152.489 255.719 152.788 255.868 153.04C256.017 153.292 256.209 153.488 256.442 153.628C256.685 153.759 256.974 153.824 257.31 153.824Z" fill="white"/>
<path d="M245.727 155V153.684H248.471V146.376H248.359L246.091 148.798L245.125 147.93L247.617 145.228H250.025V153.684H252.405V155H245.727ZM257.31 155.168C256.703 155.168 256.176 155.056 255.728 154.832C255.28 154.599 254.911 154.267 254.622 153.838C254.333 153.409 254.118 152.881 253.978 152.256C253.838 151.631 253.768 150.917 253.768 150.114C253.768 149.321 253.838 148.611 253.978 147.986C254.118 147.351 254.333 146.819 254.622 146.39C254.911 145.961 255.28 145.634 255.728 145.41C256.176 145.177 256.703 145.06 257.31 145.06C258.523 145.06 259.415 145.503 259.984 146.39C260.563 147.277 260.852 148.518 260.852 150.114C260.852 151.71 260.563 152.951 259.984 153.838C259.415 154.725 258.523 155.168 257.31 155.168ZM257.31 153.824C257.646 153.824 257.931 153.759 258.164 153.628C258.407 153.488 258.603 153.292 258.752 153.04C258.901 152.788 259.009 152.489 259.074 152.144C259.139 151.789 259.172 151.397 259.172 150.968V149.26C259.172 148.831 259.139 148.443 259.074 148.098C259.009 147.743 258.901 147.44 258.752 147.188C258.603 146.936 258.407 146.745 258.164 146.614C257.931 146.474 257.646 146.404 257.31 146.404C256.974 146.404 256.685 146.474 256.442 146.614C256.209 146.745 256.017 146.936 255.868 147.188C255.719 147.44 255.611 147.743 255.546 148.098C255.481 148.443 255.448 148.831 255.448 149.26V150.968C255.448 151.397 255.481 151.789 255.546 152.144C255.611 152.489 255.719 152.788 255.868 153.04C256.017 153.292 256.209 153.488 256.442 153.628C256.685 153.759 256.974 153.824 257.31 153.824Z" fill="white"/>
<path d="M245.727 155V153.684H248.471V146.376H248.359L246.091 148.798L245.125 147.93L247.617 145.228H250.025V153.684H252.405V155H245.727ZM257.31 155.168C256.703 155.168 256.176 155.056 255.728 154.832C255.28 154.599 254.911 154.267 254.622 153.838C254.333 153.409 254.118 152.881 253.978 152.256C253.838 151.631 253.768 150.917 253.768 150.114C253.768 149.321 253.838 148.611 253.978 147.986C254.118 147.351 254.333 146.819 254.622 146.39C254.911 145.961 255.28 145.634 255.728 145.41C256.176 145.177 256.703 145.06 257.31 145.06C258.523 145.06 259.415 145.503 259.984 146.39C260.563 147.277 260.852 148.518 260.852 150.114C260.852 151.71 260.563 152.951 259.984 153.838C259.415 154.725 258.523 155.168 257.31 155.168ZM257.31 153.824C257.646 153.824 257.931 153.759 258.164 153.628C258.407 153.488 258.603 153.292 258.752 153.04C258.901 152.788 259.009 152.489 259.074 152.144C259.139 151.789 259.172 151.397 259.172 150.968V149.26C259.172 148.831 259.139 148.443 259.074 148.098C259.009 147.743 258.901 147.44 258.752 147.188C258.603 146.936 258.407 146.745 258.164 146.614C257.931 146.474 257.646 146.404 257.31 146.404C256.974 146.404 256.685 146.474 256.442 146.614C256.209 146.745 256.017 146.936 255.868 147.188C255.719 147.44 255.611 147.743 255.546 148.098C255.481 148.443 255.448 148.831 255.448 149.26V150.968C255.448 151.397 255.481 151.789 255.546 152.144C255.611 152.489 255.719 152.788 255.868 153.04C256.017 153.292 256.209 153.488 256.442 153.628C256.685 153.759 256.974 153.824 257.31 153.824Z" fill="white" fill-opacity="0.51"/>
<path d="M216.419 148.868C216.419 149.577 216.311 150.245 216.097 150.87C215.882 151.495 215.607 152.069 215.271 152.592C214.935 153.115 214.557 153.581 214.137 153.992C213.726 154.403 213.32 154.739 212.919 155H210.819C211.369 154.599 211.864 154.211 212.303 153.838C212.741 153.465 213.124 153.082 213.451 152.69C213.777 152.298 214.048 151.883 214.263 151.444C214.487 151.005 214.659 150.525 214.781 150.002L214.683 149.974C214.58 150.17 214.459 150.357 214.319 150.534C214.188 150.702 214.029 150.851 213.843 150.982C213.665 151.113 213.46 151.215 213.227 151.29C212.993 151.365 212.723 151.402 212.415 151.402C212.004 151.402 211.621 151.332 211.267 151.192C210.921 151.052 210.618 150.851 210.357 150.59C210.105 150.319 209.904 150.002 209.755 149.638C209.615 149.265 209.545 148.845 209.545 148.378C209.545 147.893 209.624 147.445 209.783 147.034C209.951 146.623 210.184 146.273 210.483 145.984C210.781 145.695 211.141 145.471 211.561 145.312C211.981 145.144 212.452 145.06 212.975 145.06C213.516 145.06 213.997 145.149 214.417 145.326C214.846 145.503 215.205 145.76 215.495 146.096C215.793 146.423 216.022 146.819 216.181 147.286C216.339 147.753 216.419 148.28 216.419 148.868ZM212.975 150.128C213.544 150.128 213.987 149.979 214.305 149.68C214.622 149.372 214.781 148.924 214.781 148.336V148.14C214.781 147.552 214.622 147.109 214.305 146.81C213.987 146.502 213.544 146.348 212.975 146.348C212.405 146.348 211.962 146.502 211.645 146.81C211.327 147.109 211.169 147.552 211.169 148.14V148.336C211.169 148.924 211.327 149.372 211.645 149.68C211.962 149.979 212.405 150.128 212.975 150.128Z" fill="#7A7585"/>
<path d="M173.003 155.168C172.433 155.168 171.929 155.098 171.491 154.958C171.061 154.809 170.697 154.608 170.399 154.356C170.109 154.104 169.885 153.805 169.727 153.46C169.577 153.115 169.503 152.741 169.503 152.34C169.503 151.687 169.68 151.164 170.035 150.772C170.399 150.371 170.875 150.091 171.463 149.932V149.82C170.959 149.643 170.553 149.363 170.245 148.98C169.946 148.597 169.797 148.126 169.797 147.566C169.797 147.193 169.867 146.852 170.007 146.544C170.156 146.236 170.366 145.975 170.637 145.76C170.907 145.536 171.243 145.363 171.645 145.242C172.046 145.121 172.499 145.06 173.003 145.06C173.507 145.06 173.959 145.121 174.361 145.242C174.762 145.363 175.098 145.536 175.369 145.76C175.639 145.975 175.845 146.236 175.985 146.544C176.134 146.852 176.209 147.193 176.209 147.566C176.209 148.126 176.055 148.597 175.747 148.98C175.448 149.363 175.047 149.643 174.543 149.82V149.932C175.131 150.091 175.602 150.371 175.957 150.772C176.321 151.164 176.503 151.687 176.503 152.34C176.503 152.741 176.423 153.115 176.265 153.46C176.115 153.805 175.891 154.104 175.593 154.356C175.303 154.608 174.939 154.809 174.501 154.958C174.071 155.098 173.572 155.168 173.003 155.168ZM173.003 153.894C173.591 153.894 174.043 153.759 174.361 153.488C174.687 153.217 174.851 152.839 174.851 152.354V152.074C174.851 151.589 174.687 151.211 174.361 150.94C174.043 150.669 173.591 150.534 173.003 150.534C172.415 150.534 171.957 150.669 171.631 150.94C171.313 151.211 171.155 151.589 171.155 152.074V152.354C171.155 152.839 171.313 153.217 171.631 153.488C171.957 153.759 172.415 153.894 173.003 153.894ZM173.003 149.316C173.544 149.316 173.955 149.199 174.235 148.966C174.524 148.733 174.669 148.392 174.669 147.944V147.706C174.669 147.258 174.524 146.917 174.235 146.684C173.955 146.451 173.544 146.334 173.003 146.334C172.461 146.334 172.046 146.451 171.757 146.684C171.477 146.917 171.337 147.258 171.337 147.706V147.944C171.337 148.392 171.477 148.733 171.757 148.966C172.046 149.199 172.461 149.316 173.003 149.316Z" fill="#7A7585"/>
<path d="M131.197 155L134.739 146.53H131.043V148.336H129.685V145.228H136.307V146.6L132.863 155H131.197Z" fill="#7A7585"/>
<path d="M93.0307 155.168C92.4894 155.168 92.0041 155.079 91.5747 154.902C91.1547 154.725 90.7954 154.473 90.4967 154.146C90.2074 153.81 89.9834 153.409 89.8247 152.942C89.6661 152.475 89.5867 151.948 89.5867 151.36C89.5867 150.651 89.6941 149.983 89.9087 149.358C90.1234 148.733 90.3987 148.159 90.7347 147.636C91.0707 147.113 91.4441 146.651 91.8547 146.25C92.2747 145.839 92.6854 145.499 93.0867 145.228H95.1867C94.6361 145.629 94.1414 146.017 93.7027 146.39C93.2641 146.763 92.8814 147.146 92.5547 147.538C92.2281 147.93 91.9527 148.345 91.7287 148.784C91.5141 149.223 91.3461 149.703 91.2247 150.226L91.3227 150.254C91.4254 150.058 91.5421 149.876 91.6727 149.708C91.8127 149.531 91.9714 149.377 92.1487 149.246C92.3354 149.115 92.5454 149.013 92.7787 148.938C93.0121 148.863 93.2827 148.826 93.5907 148.826C94.0014 148.826 94.3794 148.896 94.7247 149.036C95.0794 149.176 95.3827 149.381 95.6347 149.652C95.8961 149.913 96.0967 150.231 96.2367 150.604C96.3861 150.977 96.4607 151.393 96.4607 151.85C96.4607 152.345 96.3767 152.797 96.2087 153.208C96.0501 153.609 95.8214 153.955 95.5227 154.244C95.2241 154.533 94.8601 154.762 94.4307 154.93C94.0107 155.089 93.5441 155.168 93.0307 155.168ZM93.0307 153.88C93.6001 153.88 94.0434 153.731 94.3607 153.432C94.6781 153.124 94.8367 152.676 94.8367 152.088V151.892C94.8367 151.304 94.6781 150.861 94.3607 150.562C94.0434 150.254 93.6001 150.1 93.0307 150.1C92.4614 150.1 92.0181 150.254 91.7007 150.562C91.3834 150.861 91.2247 151.304 91.2247 151.892V152.088C91.2247 152.676 91.3834 153.124 91.7007 153.432C92.0181 153.731 92.4614 153.88 93.0307 153.88Z" fill="#7A7585"/>
<path d="M55.9147 146.6H51.5747L51.3227 150.058H51.4207C51.5327 149.862 51.6494 149.689 51.7707 149.54C51.8921 149.381 52.0321 149.246 52.1907 149.134C52.3494 149.022 52.5314 148.938 52.7367 148.882C52.9421 148.817 53.1847 148.784 53.4647 148.784C53.8847 148.784 54.2721 148.854 54.6267 148.994C54.9907 149.134 55.3034 149.335 55.5647 149.596C55.8354 149.857 56.0454 150.179 56.1947 150.562C56.3441 150.935 56.4187 151.36 56.4187 151.836C56.4187 152.321 56.3394 152.769 56.1807 153.18C56.0314 153.591 55.8074 153.945 55.5087 154.244C55.2101 154.533 54.8414 154.762 54.4027 154.93C53.9734 155.089 53.4834 155.168 52.9327 155.168C52.4941 155.168 52.1067 155.117 51.7707 155.014C51.4347 154.921 51.1361 154.795 50.8747 154.636C50.6227 154.468 50.3987 154.281 50.2027 154.076C50.0161 153.861 49.8481 153.642 49.6987 153.418L50.8467 152.508C50.9681 152.704 51.0941 152.881 51.2247 153.04C51.3554 153.199 51.5047 153.339 51.6727 153.46C51.8407 153.581 52.0274 153.675 52.2327 153.74C52.4474 153.805 52.6901 153.838 52.9607 153.838C53.5394 153.838 53.9827 153.679 54.2907 153.362C54.6081 153.045 54.7667 152.606 54.7667 152.046V151.878C54.7667 151.318 54.6081 150.879 54.2907 150.562C53.9827 150.245 53.5394 150.086 52.9607 150.086C52.5407 150.086 52.2047 150.165 51.9527 150.324C51.7007 150.483 51.4861 150.66 51.3087 150.856L50.0067 150.674L50.3707 145.228H55.9147V146.6Z" fill="#7A7585"/>
<path d="M293.829 113V111.096H289.293V109.738L293.255 103.228H295.327V109.85H296.657V111.096H295.327V113H293.829ZM290.637 109.85H293.829V104.67H293.731L290.637 109.85Z" fill="#7A7585"/>
<path d="M252.471 107.246C253.077 107.246 253.525 107.12 253.815 106.868C254.104 106.607 254.249 106.275 254.249 105.874V105.776C254.249 105.328 254.109 104.987 253.829 104.754C253.549 104.511 253.171 104.39 252.695 104.39C252.228 104.39 251.831 104.497 251.505 104.712C251.178 104.917 250.903 105.207 250.679 105.58L249.629 104.67C249.778 104.455 249.946 104.25 250.133 104.054C250.319 103.858 250.539 103.69 250.791 103.55C251.043 103.401 251.327 103.284 251.645 103.2C251.962 103.107 252.326 103.06 252.737 103.06C253.194 103.06 253.619 103.116 254.011 103.228C254.403 103.34 254.739 103.508 255.019 103.732C255.299 103.947 255.518 104.213 255.677 104.53C255.835 104.838 255.915 105.188 255.915 105.58C255.915 105.888 255.863 106.168 255.761 106.42C255.667 106.672 255.532 106.896 255.355 107.092C255.187 107.279 254.986 107.433 254.753 107.554C254.529 107.675 254.291 107.764 254.039 107.82V107.89C254.319 107.946 254.58 108.039 254.823 108.17C255.075 108.291 255.294 108.455 255.481 108.66C255.667 108.856 255.812 109.094 255.915 109.374C256.027 109.645 256.083 109.957 256.083 110.312C256.083 110.741 255.999 111.133 255.831 111.488C255.663 111.833 255.425 112.132 255.117 112.384C254.818 112.636 254.454 112.832 254.025 112.972C253.595 113.103 253.119 113.168 252.597 113.168C252.139 113.168 251.738 113.117 251.393 113.014C251.047 112.921 250.739 112.795 250.469 112.636C250.207 112.468 249.974 112.281 249.769 112.076C249.573 111.861 249.4 111.642 249.251 111.418L250.413 110.508C250.534 110.704 250.66 110.886 250.791 111.054C250.931 111.213 251.085 111.353 251.253 111.474C251.43 111.586 251.626 111.675 251.841 111.74C252.065 111.805 252.317 111.838 252.597 111.838C253.194 111.838 253.651 111.698 253.969 111.418C254.286 111.129 254.445 110.732 254.445 110.228V110.13C254.445 109.626 254.277 109.243 253.941 108.982C253.605 108.721 253.129 108.59 252.513 108.59H251.477V107.246H252.471Z" fill="#7A7585"/>
<path d="M216.377 113H209.741V111.488L212.863 108.702C213.357 108.254 213.735 107.829 213.997 107.428C214.267 107.017 214.403 106.588 214.403 106.14V105.958C214.403 105.482 214.258 105.109 213.969 104.838C213.689 104.567 213.306 104.432 212.821 104.432C212.55 104.432 212.312 104.474 212.107 104.558C211.911 104.633 211.738 104.74 211.589 104.88C211.439 105.02 211.313 105.183 211.211 105.37C211.117 105.557 211.043 105.757 210.987 105.972L209.601 105.44C209.703 105.132 209.843 104.838 210.021 104.558C210.198 104.269 210.422 104.012 210.693 103.788C210.963 103.564 211.281 103.387 211.645 103.256C212.018 103.125 212.452 103.06 212.947 103.06C213.441 103.06 213.885 103.135 214.277 103.284C214.669 103.424 214.995 103.625 215.257 103.886C215.527 104.138 215.733 104.441 215.873 104.796C216.013 105.151 216.083 105.538 216.083 105.958C216.083 106.35 216.022 106.714 215.901 107.05C215.779 107.386 215.611 107.703 215.397 108.002C215.182 108.301 214.93 108.585 214.641 108.856C214.361 109.127 214.062 109.402 213.745 109.682L211.449 111.656H216.377V113Z" fill="#7A7585"/>
<circle cx="173" cy="108" r="16" fill="url(#paint1_linear)"/>
<path d="M170.035 113V111.684H172.779V104.376H172.667L170.399 106.798L169.433 105.93L171.925 103.228H174.333V111.684H176.713V113H170.035Z" fill="white"/>
<path d="M170.035 113V111.684H172.779V104.376H172.667L170.399 106.798L169.433 105.93L171.925 103.228H174.333V111.684H176.713V113H170.035Z" fill="white"/>
<path d="M170.035 113V111.684H172.779V104.376H172.667L170.399 106.798L169.433 105.93L171.925 103.228H174.333V111.684H176.713V113H170.035Z" fill="white" fill-opacity="0.51"/>
<path d="M128.163 107.246C128.77 107.246 129.218 107.12 129.507 106.868C129.797 106.607 129.941 106.275 129.941 105.874V105.776C129.941 105.328 129.801 104.987 129.521 104.754C129.241 104.511 128.863 104.39 128.387 104.39C127.921 104.39 127.524 104.497 127.197 104.712C126.871 104.917 126.595 105.207 126.371 105.58L125.321 104.67C125.471 104.455 125.639 104.25 125.825 104.054C126.012 103.858 126.231 103.69 126.483 103.55C126.735 103.401 127.02 103.284 127.337 103.2C127.655 103.107 128.019 103.06 128.429 103.06C128.887 103.06 129.311 103.116 129.703 103.228C130.095 103.34 130.431 103.508 130.711 103.732C130.991 103.947 131.211 104.213 131.369 104.53C131.528 104.838 131.607 105.188 131.607 105.58C131.607 105.888 131.556 106.168 131.453 106.42C131.36 106.672 131.225 106.896 131.047 107.092C130.879 107.279 130.679 107.433 130.445 107.554C130.221 107.675 129.983 107.764 129.731 107.82V107.89C130.011 107.946 130.273 108.039 130.515 108.17C130.767 108.291 130.987 108.455 131.173 108.66C131.36 108.856 131.505 109.094 131.607 109.374C131.719 109.645 131.775 109.957 131.775 110.312C131.775 110.741 131.691 111.133 131.523 111.488C131.355 111.833 131.117 112.132 130.809 112.384C130.511 112.636 130.147 112.832 129.717 112.972C129.288 113.103 128.812 113.168 128.289 113.168C127.832 113.168 127.431 113.117 127.085 113.014C126.74 112.921 126.432 112.795 126.161 112.636C125.9 112.468 125.667 112.281 125.461 112.076C125.265 111.861 125.093 111.642 124.943 111.418L126.105 110.508C126.227 110.704 126.353 110.886 126.483 111.054C126.623 111.213 126.777 111.353 126.945 111.474C127.123 111.586 127.319 111.675 127.533 111.74C127.757 111.805 128.009 111.838 128.289 111.838C128.887 111.838 129.344 111.698 129.661 111.418C129.979 111.129 130.137 110.732 130.137 110.228V110.13C130.137 109.626 129.969 109.243 129.633 108.982C129.297 108.721 128.821 108.59 128.205 108.59H127.169V107.246H128.163ZM137.31 113.168C136.703 113.168 136.176 113.056 135.728 112.832C135.28 112.599 134.911 112.267 134.622 111.838C134.333 111.409 134.118 110.881 133.978 110.256C133.838 109.631 133.768 108.917 133.768 108.114C133.768 107.321 133.838 106.611 133.978 105.986C134.118 105.351 134.333 104.819 134.622 104.39C134.911 103.961 135.28 103.634 135.728 103.41C136.176 103.177 136.703 103.06 137.31 103.06C138.523 103.06 139.415 103.503 139.984 104.39C140.563 105.277 140.852 106.518 140.852 108.114C140.852 109.71 140.563 110.951 139.984 111.838C139.415 112.725 138.523 113.168 137.31 113.168ZM137.31 111.824C137.646 111.824 137.931 111.759 138.164 111.628C138.407 111.488 138.603 111.292 138.752 111.04C138.901 110.788 139.009 110.489 139.074 110.144C139.139 109.789 139.172 109.397 139.172 108.968V107.26C139.172 106.831 139.139 106.443 139.074 106.098C139.009 105.743 138.901 105.44 138.752 105.188C138.603 104.936 138.407 104.745 138.164 104.614C137.931 104.474 137.646 104.404 137.31 104.404C136.974 104.404 136.685 104.474 136.442 104.614C136.209 104.745 136.017 104.936 135.868 105.188C135.719 105.44 135.611 105.743 135.546 106.098C135.481 106.443 135.448 106.831 135.448 107.26V108.968C135.448 109.397 135.481 109.789 135.546 110.144C135.611 110.489 135.719 110.788 135.868 111.04C136.017 111.292 136.209 111.488 136.442 111.628C136.685 111.759 136.974 111.824 137.31 111.824Z" fill="#2F80ED"/>
<path d="M92.0695 113H85.4335V111.488L88.5555 108.702C89.0501 108.254 89.4281 107.829 89.6895 107.428C89.9601 107.017 90.0955 106.588 90.0955 106.14V105.958C90.0955 105.482 89.9508 105.109 89.6615 104.838C89.3815 104.567 88.9988 104.432 88.5135 104.432C88.2428 104.432 88.0048 104.474 87.7995 104.558C87.6035 104.633 87.4308 104.74 87.2815 104.88C87.1321 105.02 87.0061 105.183 86.9035 105.37C86.8101 105.557 86.7355 105.757 86.6795 105.972L85.2935 105.44C85.3961 105.132 85.5361 104.838 85.7135 104.558C85.8908 104.269 86.1148 104.012 86.3855 103.788C86.6561 103.564 86.9735 103.387 87.3375 103.256C87.7108 103.125 88.1448 103.06 88.6395 103.06C89.1341 103.06 89.5775 103.135 89.9695 103.284C90.3615 103.424 90.6881 103.625 90.9495 103.886C91.2201 104.138 91.4255 104.441 91.5655 104.796C91.7055 105.151 91.7755 105.538 91.7755 105.958C91.7755 106.35 91.7148 106.714 91.5935 107.05C91.4721 107.386 91.3041 107.703 91.0895 108.002C90.8748 108.301 90.6228 108.585 90.3335 108.856C90.0535 109.127 89.7548 109.402 89.4375 109.682L87.1415 111.656H92.0695V113ZM100.726 106.868C100.726 107.577 100.619 108.245 100.404 108.87C100.189 109.495 99.914 110.069 99.578 110.592C99.242 111.115 98.864 111.581 98.444 111.992C98.0333 112.403 97.6273 112.739 97.226 113H95.126C95.6767 112.599 96.1713 112.211 96.61 111.838C97.0487 111.465 97.4313 111.082 97.758 110.69C98.0847 110.298 98.3553 109.883 98.57 109.444C98.794 109.005 98.9667 108.525 99.088 108.002L98.99 107.974C98.8873 108.17 98.766 108.357 98.626 108.534C98.4953 108.702 98.3367 108.851 98.15 108.982C97.9727 109.113 97.7673 109.215 97.534 109.29C97.3007 109.365 97.03 109.402 96.722 109.402C96.3113 109.402 95.9287 109.332 95.574 109.192C95.2287 109.052 94.9253 108.851 94.664 108.59C94.412 108.319 94.2113 108.002 94.062 107.638C93.922 107.265 93.852 106.845 93.852 106.378C93.852 105.893 93.9313 105.445 94.09 105.034C94.258 104.623 94.4913 104.273 94.79 103.984C95.0887 103.695 95.448 103.471 95.868 103.312C96.288 103.144 96.7593 103.06 97.282 103.06C97.8233 103.06 98.304 103.149 98.724 103.326C99.1533 103.503 99.5127 103.76 99.802 104.096C100.101 104.423 100.329 104.819 100.488 105.286C100.647 105.753 100.726 106.28 100.726 106.868ZM97.282 108.128C97.8513 108.128 98.2947 107.979 98.612 107.68C98.9293 107.372 99.088 106.924 99.088 106.336V106.14C99.088 105.552 98.9293 105.109 98.612 104.81C98.2947 104.502 97.8513 104.348 97.282 104.348C96.7127 104.348 96.2693 104.502 95.952 104.81C95.6347 105.109 95.476 105.552 95.476 106.14V106.336C95.476 106.924 95.6347 107.372 95.952 107.68C96.2693 107.979 96.7127 108.128 97.282 108.128Z" fill="#2F80ED"/>
<path d="M52.0695 113H45.4335V111.488L48.5555 108.702C49.0501 108.254 49.4281 107.829 49.6895 107.428C49.9601 107.017 50.0955 106.588 50.0955 106.14V105.958C50.0955 105.482 49.9508 105.109 49.6615 104.838C49.3815 104.567 48.9988 104.432 48.5135 104.432C48.2428 104.432 48.0048 104.474 47.7995 104.558C47.6035 104.633 47.4308 104.74 47.2815 104.88C47.1321 105.02 47.0061 105.183 46.9035 105.37C46.8101 105.557 46.7355 105.757 46.6795 105.972L45.2935 105.44C45.3961 105.132 45.5361 104.838 45.7135 104.558C45.8908 104.269 46.1148 104.012 46.3855 103.788C46.6561 103.564 46.9735 103.387 47.3375 103.256C47.7108 103.125 48.1448 103.06 48.6395 103.06C49.1341 103.06 49.5775 103.135 49.9695 103.284C50.3615 103.424 50.6881 103.625 50.9495 103.886C51.2201 104.138 51.4255 104.441 51.5655 104.796C51.7055 105.151 51.7755 105.538 51.7755 105.958C51.7755 106.35 51.7148 106.714 51.5935 107.05C51.4721 107.386 51.3041 107.703 51.0895 108.002C50.8748 108.301 50.6228 108.585 50.3335 108.856C50.0535 109.127 49.7548 109.402 49.4375 109.682L47.1415 111.656H52.0695V113ZM57.31 113.168C56.7407 113.168 56.2367 113.098 55.798 112.958C55.3687 112.809 55.0047 112.608 54.706 112.356C54.4167 112.104 54.1927 111.805 54.034 111.46C53.8847 111.115 53.81 110.741 53.81 110.34C53.81 109.687 53.9873 109.164 54.342 108.772C54.706 108.371 55.182 108.091 55.77 107.932V107.82C55.266 107.643 54.86 107.363 54.552 106.98C54.2533 106.597 54.104 106.126 54.104 105.566C54.104 105.193 54.174 104.852 54.314 104.544C54.4633 104.236 54.6733 103.975 54.944 103.76C55.2147 103.536 55.5507 103.363 55.952 103.242C56.3533 103.121 56.806 103.06 57.31 103.06C57.814 103.06 58.2667 103.121 58.668 103.242C59.0693 103.363 59.4053 103.536 59.676 103.76C59.9467 103.975 60.152 104.236 60.292 104.544C60.4413 104.852 60.516 105.193 60.516 105.566C60.516 106.126 60.362 106.597 60.054 106.98C59.7553 107.363 59.354 107.643 58.85 107.82V107.932C59.438 108.091 59.9093 108.371 60.264 108.772C60.628 109.164 60.81 109.687 60.81 110.34C60.81 110.741 60.7307 111.115 60.572 111.46C60.4227 111.805 60.1987 112.104 59.9 112.356C59.6107 112.608 59.2467 112.809 58.808 112.958C58.3787 113.098 57.8793 113.168 57.31 113.168ZM57.31 111.894C57.898 111.894 58.3507 111.759 58.668 111.488C58.9947 111.217 59.158 110.839 59.158 110.354V110.074C59.158 109.589 58.9947 109.211 58.668 108.94C58.3507 108.669 57.898 108.534 57.31 108.534C56.722 108.534 56.2647 108.669 55.938 108.94C55.6207 109.211 55.462 109.589 55.462 110.074V110.354C55.462 110.839 55.6207 111.217 55.938 111.488C56.2647 111.759 56.722 111.894 57.31 111.894ZM57.31 107.316C57.8513 107.316 58.262 107.199 58.542 106.966C58.8313 106.733 58.976 106.392 58.976 105.944V105.706C58.976 105.258 58.8313 104.917 58.542 104.684C58.262 104.451 57.8513 104.334 57.31 104.334C56.7687 104.334 56.3533 104.451 56.064 104.684C55.784 104.917 55.644 105.258 55.644 105.706V105.944C55.644 106.392 55.784 106.733 56.064 106.966C56.3533 107.199 56.7687 107.316 57.31 107.316Z" fill="#2F80ED"/>
<path d="M285.928 65.02H289.318C289.898 65.02 290.348 65.1833 290.668 65.51C290.995 65.8367 291.158 66.27 291.158 66.81C291.158 67.0767 291.122 67.3033 291.048 67.49C290.982 67.6767 290.888 67.83 290.768 67.95C290.655 68.07 290.518 68.16 290.358 68.22C290.205 68.2733 290.038 68.3033 289.858 68.31V68.37C290.025 68.37 290.198 68.4 290.378 68.46C290.565 68.52 290.735 68.6167 290.888 68.75C291.042 68.8767 291.168 69.0433 291.268 69.25C291.375 69.4567 291.428 69.71 291.428 70.01C291.428 70.2833 291.382 70.5433 291.288 70.79C291.202 71.03 291.078 71.24 290.918 71.42C290.758 71.6 290.568 71.7433 290.348 71.85C290.128 71.95 289.888 72 289.628 72H285.928V65.02ZM287.448 70.72H289.198C289.398 70.72 289.555 70.6667 289.668 70.56C289.788 70.4467 289.848 70.29 289.848 70.09V69.75C289.848 69.55 289.788 69.3967 289.668 69.29C289.555 69.1767 289.398 69.12 289.198 69.12H287.448V70.72ZM287.448 67.88H288.958C289.158 67.88 289.315 67.8233 289.428 67.71C289.542 67.5967 289.598 67.44 289.598 67.24V66.94C289.598 66.74 289.542 66.5833 289.428 66.47C289.315 66.3567 289.158 66.3 288.958 66.3H287.448V67.88ZM296.918 72.12C296.445 72.12 296.018 72.0467 295.638 71.9C295.258 71.7467 294.935 71.5233 294.668 71.23C294.401 70.93 294.195 70.56 294.048 70.12C293.901 69.6733 293.828 69.1533 293.828 68.56C293.828 67.9733 293.901 67.4533 294.048 67C294.195 66.54 294.401 66.1567 294.668 65.85C294.935 65.5367 295.258 65.3 295.638 65.14C296.018 64.98 296.445 64.9 296.918 64.9C297.565 64.9 298.098 65.0333 298.518 65.3C298.938 65.56 299.275 65.9733 299.528 66.54L298.218 67.22C298.125 66.9267 297.978 66.6933 297.778 66.52C297.585 66.34 297.298 66.25 296.918 66.25C296.471 66.25 296.111 66.3967 295.838 66.69C295.571 66.9767 295.438 67.3967 295.438 67.95V69.07C295.438 69.6233 295.571 70.0467 295.838 70.34C296.111 70.6267 296.471 70.77 296.918 70.77C297.291 70.77 297.588 70.67 297.808 70.47C298.035 70.2633 298.201 70.0167 298.308 69.73L299.548 70.45C299.288 70.9833 298.945 71.3967 298.518 71.69C298.098 71.9767 297.565 72.12 296.918 72.12Z" fill="#828282"/>
<path d="M248.797 72.12C248.324 72.12 247.897 72.0467 247.517 71.9C247.137 71.7467 246.814 71.5233 246.547 71.23C246.28 70.93 246.074 70.56 245.927 70.12C245.78 69.6733 245.707 69.1533 245.707 68.56C245.707 67.9733 245.78 67.4533 245.927 67C246.074 66.54 246.28 66.1567 246.547 65.85C246.814 65.5367 247.137 65.3 247.517 65.14C247.897 64.98 248.324 64.9 248.797 64.9C249.444 64.9 249.977 65.0333 250.397 65.3C250.817 65.56 251.154 65.9733 251.407 66.54L250.097 67.22C250.004 66.9267 249.857 66.6933 249.657 66.52C249.464 66.34 249.177 66.25 248.797 66.25C248.35 66.25 247.99 66.3967 247.717 66.69C247.45 66.9767 247.317 67.3967 247.317 67.95V69.07C247.317 69.6233 247.45 70.0467 247.717 70.34C247.99 70.6267 248.35 70.77 248.797 70.77C249.17 70.77 249.467 70.67 249.687 70.47C249.914 70.2633 250.08 70.0167 250.187 69.73L251.427 70.45C251.167 70.9833 250.824 71.3967 250.397 71.69C249.977 71.9767 249.444 72.12 248.797 72.12ZM253.991 65.02H258.711V66.37H255.511V67.68H257.291C257.617 67.68 257.911 67.7333 258.171 67.84C258.431 67.9467 258.651 68.0967 258.831 68.29C259.017 68.4833 259.161 68.7133 259.261 68.98C259.361 69.2467 259.411 69.5367 259.411 69.85C259.411 70.1633 259.361 70.45 259.261 70.71C259.161 70.97 259.017 71.1967 258.831 71.39C258.651 71.5833 258.431 71.7333 258.171 71.84C257.911 71.9467 257.617 72 257.291 72H253.991V65.02ZM257.111 70.68C257.337 70.68 257.514 70.6233 257.641 70.51C257.774 70.39 257.841 70.2167 257.841 69.99V69.69C257.841 69.4633 257.774 69.2933 257.641 69.18C257.514 69.06 257.337 69 257.111 69H255.511V70.68H257.111Z" fill="#828282"/>
<path d="M206.055 65.02H211.605V72H210.085V66.37H207.575V72H206.055V65.02ZM217.555 66.37V72H216.035V66.37H214.145V65.02H219.445V66.37H217.555Z" fill="#828282"/>
<path d="M169.931 69.53H169.881C169.721 69.6033 169.535 69.66 169.321 69.7C169.108 69.74 168.851 69.76 168.551 69.76C166.838 69.76 165.981 68.9033 165.981 67.19V65.02H167.501V67.25C167.501 68.0433 167.898 68.44 168.691 68.44C168.985 68.44 169.228 68.4267 169.421 68.4C169.615 68.3667 169.785 68.32 169.931 68.26V65.02H171.451V72H169.931V69.53ZM177.399 66.37V72H175.879V66.37H173.989V65.02H179.289V66.37H177.399Z" fill="#828282"/>
<path d="M128.802 72.12C128.329 72.12 127.902 72.0467 127.522 71.9C127.142 71.7467 126.819 71.5233 126.552 71.23C126.285 70.93 126.079 70.56 125.932 70.12C125.785 69.6733 125.712 69.1533 125.712 68.56C125.712 67.9733 125.785 67.4533 125.932 67C126.079 66.54 126.285 66.1567 126.552 65.85C126.819 65.5367 127.142 65.3 127.522 65.14C127.902 64.98 128.329 64.9 128.802 64.9C129.449 64.9 129.982 65.0333 130.402 65.3C130.822 65.56 131.159 65.9733 131.412 66.54L130.102 67.22C130.009 66.9267 129.862 66.6933 129.662 66.52C129.469 66.34 129.182 66.25 128.802 66.25C128.355 66.25 127.995 66.3967 127.722 66.69C127.455 66.9767 127.322 67.3967 127.322 67.95V69.07C127.322 69.6233 127.455 70.0467 127.722 70.34C127.995 70.6267 128.355 70.77 128.802 70.77C129.175 70.77 129.472 70.67 129.692 70.47C129.919 70.2633 130.085 70.0167 130.192 69.73L131.432 70.45C131.172 70.9833 130.829 71.3967 130.402 71.69C129.982 71.9767 129.449 72.12 128.802 72.12ZM133.996 72V65.02H137.296C137.622 65.02 137.916 65.0767 138.176 65.19C138.436 65.2967 138.656 65.4467 138.836 65.64C139.022 65.8333 139.166 66.07 139.266 66.35C139.366 66.6233 139.416 66.9233 139.416 67.25C139.416 67.5833 139.366 67.8867 139.266 68.16C139.166 68.4333 139.022 68.6667 138.836 68.86C138.656 69.0533 138.436 69.2067 138.176 69.32C137.916 69.4267 137.622 69.48 137.296 69.48H135.516V72H133.996ZM135.516 68.16H137.116C137.342 68.16 137.519 68.1033 137.646 67.99C137.779 67.87 137.846 67.6967 137.846 67.47V67.03C137.846 66.8033 137.779 66.6333 137.646 66.52C137.519 66.4 137.342 66.34 137.116 66.34H135.516V68.16Z" fill="#828282"/>
<path d="M86.397 65.02H89.787C90.367 65.02 90.817 65.1833 91.137 65.51C91.4636 65.8367 91.627 66.27 91.627 66.81C91.627 67.0767 91.5903 67.3033 91.517 67.49C91.4503 67.6767 91.357 67.83 91.237 67.95C91.1236 68.07 90.987 68.16 90.827 68.22C90.6736 68.2733 90.507 68.3033 90.327 68.31V68.37C90.4936 68.37 90.667 68.4 90.847 68.46C91.0336 68.52 91.2036 68.6167 91.357 68.75C91.5103 68.8767 91.637 69.0433 91.737 69.25C91.8436 69.4567 91.897 69.71 91.897 70.01C91.897 70.2833 91.8503 70.5433 91.757 70.79C91.6703 71.03 91.547 71.24 91.387 71.42C91.227 71.6 91.037 71.7433 90.817 71.85C90.597 71.95 90.357 72 90.097 72H86.397V65.02ZM87.917 70.72H89.667C89.867 70.72 90.0236 70.6667 90.137 70.56C90.257 70.4467 90.317 70.29 90.317 70.09V69.75C90.317 69.55 90.257 69.3967 90.137 69.29C90.0236 69.1767 89.867 69.12 89.667 69.12H87.917V70.72ZM87.917 67.88H89.427C89.627 67.88 89.7836 67.8233 89.897 67.71C90.0103 67.5967 90.067 67.44 90.067 67.24V66.94C90.067 66.74 90.0103 66.5833 89.897 66.47C89.7836 66.3567 89.627 66.3 89.427 66.3H87.917V67.88ZM97.2132 66.37V72H95.6932V66.37H93.8032V65.02H99.1032V66.37H97.2132Z" fill="#828282"/>
<path d="M45.3569 65.02H50.9069V72H49.3869V66.37H46.8769V72H45.3569V65.02ZM58.1268 69.14H55.4668V72H53.9468V65.02H55.4668V67.8H58.1268V65.02H59.6468V72H58.1268V69.14Z" fill="#828282"/>
<path d="M116.803 42.24C115.897 42.24 115.077 42.0867 114.343 41.78C113.623 41.46 113.003 41 112.483 40.4C111.977 39.7867 111.583 39.0333 111.303 38.14C111.023 37.2333 110.883 36.1933 110.883 35.02C110.883 33.8467 111.023 32.8133 111.303 31.92C111.583 31.0267 111.977 30.2733 112.483 29.66C113.003 29.0467 113.623 28.5867 114.343 28.28C115.077 27.96 115.897 27.8 116.803 27.8C117.697 27.8 118.51 27.96 119.243 28.28C119.977 28.5867 120.597 29.0467 121.103 29.66C121.623 30.2733 122.023 31.0267 122.303 31.92C122.583 32.8133 122.723 33.8467 122.723 35.02C122.723 36.1933 122.583 37.2333 122.303 38.14C122.023 39.0333 121.623 39.7867 121.103 40.4C120.597 41 119.977 41.46 119.243 41.78C118.51 42.0867 117.697 42.24 116.803 42.24ZM116.803 40.74C117.403 40.74 117.957 40.6333 118.463 40.42C118.97 40.2067 119.403 39.9 119.763 39.5C120.137 39.1 120.423 38.62 120.623 38.06C120.823 37.5 120.923 36.8733 120.923 36.18V33.86C120.923 33.1667 120.823 32.54 120.623 31.98C120.423 31.42 120.137 30.94 119.763 30.54C119.403 30.14 118.97 29.8333 118.463 29.62C117.957 29.4067 117.403 29.3 116.803 29.3C116.203 29.3 115.65 29.4067 115.143 29.62C114.637 29.8333 114.197 30.14 113.823 30.54C113.463 30.94 113.183 31.42 112.983 31.98C112.783 32.54 112.683 33.1667 112.683 33.86V36.18C112.683 36.8733 112.783 37.5 112.983 38.06C113.183 38.62 113.463 39.1 113.823 39.5C114.197 39.9 114.637 40.2067 115.143 40.42C115.65 40.6333 116.203 40.74 116.803 40.74ZM125.704 31.68H127.304V36H129.364L131.364 32.84C131.51 32.6 131.65 32.4067 131.784 32.26C131.917 32.1 132.05 31.98 132.184 31.9C132.317 31.82 132.457 31.7667 132.604 31.74C132.75 31.7 132.917 31.68 133.104 31.68H134.044V33.08H132.804L131.184 35.64C131.077 35.8133 130.984 35.9533 130.904 36.06C130.824 36.1667 130.744 36.26 130.664 36.34C130.584 36.4067 130.497 36.4667 130.404 36.52C130.31 36.56 130.197 36.6 130.064 36.64V36.72C130.344 36.76 130.584 36.8533 130.784 37C130.997 37.1333 131.217 37.4 131.444 37.8L133.024 40.6H134.204V42H133.044C132.697 42 132.377 41.9133 132.084 41.74C131.804 41.5533 131.53 41.22 131.264 40.74L129.364 37.36H127.304V42H125.704V31.68ZM139.04 33.08H135.52V31.68H144.16V33.08H140.64V42H139.04V33.08ZM145.297 40.6H146.437L147.097 39.08C147.244 38.7333 147.424 38.4733 147.637 38.3C147.85 38.1133 148.09 38 148.357 37.96V37.88C147.437 37.8 146.744 37.5 146.277 36.98C145.81 36.46 145.577 35.76 145.577 34.88C145.577 33.88 145.877 33.1 146.477 32.54C147.077 31.9667 147.904 31.68 148.957 31.68H153.517V42H151.917V38.04H149.237L148.157 40.58C147.917 41.14 147.65 41.52 147.357 41.72C147.077 41.9067 146.757 42 146.397 42H145.297V40.6ZM151.917 36.68V33.08H149.197C148.597 33.08 148.13 33.1933 147.797 33.42C147.464 33.6467 147.297 34.0267 147.297 34.56V35.22C147.297 35.7533 147.464 36.1333 147.797 36.36C148.13 36.5733 148.597 36.68 149.197 36.68H151.917ZM161.02 42.24C160.3 42.24 159.653 42.12 159.08 41.88C158.507 41.64 158.02 41.2667 157.62 40.76C157.22 40.2533 156.907 39.6 156.68 38.8C156.467 37.9867 156.36 37.0067 156.36 35.86C156.36 34.38 156.453 33.1133 156.64 32.06C156.84 31.0067 157.153 30.14 157.58 29.46C158.007 28.78 158.547 28.2733 159.2 27.94C159.867 27.5933 160.673 27.38 161.62 27.3L164.86 27.04V28.66L161.42 28.94C160.833 28.9933 160.34 29.1067 159.94 29.28C159.54 29.4533 159.207 29.7267 158.94 30.1C158.687 30.46 158.487 30.94 158.34 31.54C158.207 32.14 158.107 32.8867 158.04 33.78H158.12C158.427 33.0733 158.82 32.5467 159.3 32.2C159.793 31.8533 160.44 31.68 161.24 31.68C161.893 31.68 162.493 31.8 163.04 32.04C163.587 32.28 164.053 32.6267 164.44 33.08C164.827 33.52 165.127 34.0733 165.34 34.74C165.567 35.3933 165.68 36.14 165.68 36.98C165.68 37.7667 165.567 38.48 165.34 39.12C165.113 39.76 164.793 40.3133 164.38 40.78C163.967 41.2467 163.473 41.6067 162.9 41.86C162.34 42.1133 161.713 42.24 161.02 42.24ZM161.1 40.82C161.513 40.82 161.893 40.7533 162.24 40.62C162.587 40.4867 162.887 40.2867 163.14 40.02C163.393 39.7533 163.593 39.4267 163.74 39.04C163.887 38.6533 163.96 38.2 163.96 37.68V36.42C163.96 35.3 163.687 34.4667 163.14 33.92C162.593 33.3733 161.86 33.1 160.94 33.1C159.98 33.1 159.26 33.34 158.78 33.82C158.313 34.2867 158.08 34.9 158.08 35.66V37.5C158.08 38.62 158.353 39.4533 158.9 40C159.447 40.5467 160.18 40.82 161.1 40.82ZM168.449 31.68H170.049V33.36H170.129C170.396 32.7067 170.782 32.2267 171.289 31.92C171.809 31.6 172.429 31.44 173.149 31.44C173.789 31.44 174.369 31.5667 174.889 31.82C175.409 32.0733 175.849 32.4333 176.209 32.9C176.582 33.3667 176.862 33.9333 177.049 34.6C177.249 35.2667 177.349 36.0133 177.349 36.84C177.349 37.6667 177.249 38.4133 177.049 39.08C176.862 39.7467 176.582 40.3133 176.209 40.78C175.849 41.2467 175.409 41.6067 174.889 41.86C174.369 42.1133 173.789 42.24 173.149 42.24C171.749 42.24 170.742 41.6 170.129 40.32H170.049V46H168.449V31.68ZM172.709 40.8C173.616 40.8 174.329 40.52 174.849 39.96C175.369 39.3867 175.629 38.64 175.629 37.72V35.96C175.629 35.04 175.369 34.3 174.849 33.74C174.329 33.1667 173.616 32.88 172.709 32.88C172.349 32.88 172.002 32.9333 171.669 33.04C171.349 33.1333 171.069 33.2667 170.829 33.44C170.589 33.6133 170.396 33.8267 170.249 34.08C170.116 34.32 170.049 34.58 170.049 34.86V38.7C170.049 39.0333 170.116 39.3333 170.249 39.6C170.396 39.8533 170.589 40.0733 170.829 40.26C171.069 40.4333 171.349 40.5667 171.669 40.66C172.002 40.7533 172.349 40.8 172.709 40.8ZM180.171 31.68H181.771V35.42H184.711C185.751 35.42 186.577 35.7133 187.191 36.3C187.804 36.8867 188.111 37.6933 188.111 38.72C188.111 39.76 187.811 40.5667 187.211 41.14C186.611 41.7133 185.784 42 184.731 42H180.171V31.68ZM184.491 40.6C185.091 40.6 185.557 40.4867 185.891 40.26C186.224 40.0333 186.391 39.6533 186.391 39.12V38.28C186.391 37.7467 186.224 37.3733 185.891 37.16C185.557 36.9333 185.091 36.82 184.491 36.82H181.771V40.6H184.491ZM204.488 42H195.328V40.28L199.888 36.08C200.541 35.48 201.088 34.8467 201.528 34.18C201.968 33.5 202.188 32.82 202.188 32.14V31.9C202.188 31.1267 201.975 30.5 201.548 30.02C201.121 29.54 200.475 29.3 199.608 29.3C199.181 29.3 198.808 29.36 198.488 29.48C198.168 29.6 197.888 29.7667 197.648 29.98C197.421 30.1933 197.228 30.4467 197.068 30.74C196.921 31.02 196.801 31.3267 196.708 31.66L195.208 31.08C195.341 30.6667 195.521 30.2667 195.748 29.88C195.988 29.48 196.281 29.1267 196.628 28.82C196.988 28.5133 197.415 28.2667 197.908 28.08C198.415 27.8933 199.008 27.8 199.688 27.8C200.368 27.8 200.975 27.9 201.508 28.1C202.041 28.3 202.488 28.58 202.848 28.94C203.208 29.3 203.481 29.7267 203.668 30.22C203.868 30.7133 203.968 31.26 203.968 31.86C203.968 32.4067 203.888 32.9133 203.728 33.38C203.581 33.8467 203.375 34.2933 203.108 34.72C202.841 35.1333 202.515 35.54 202.128 35.94C201.755 36.34 201.348 36.74 200.908 37.14L197.148 40.52H204.488V42ZM211.94 42.24C210.273 42.24 209.053 41.6067 208.28 40.34C207.52 39.0733 207.14 37.3 207.14 35.02C207.14 32.74 207.52 30.9667 208.28 29.7C209.053 28.4333 210.273 27.8 211.94 27.8C213.607 27.8 214.82 28.4333 215.58 29.7C216.353 30.9667 216.74 32.74 216.74 35.02C216.74 37.3 216.353 39.0733 215.58 40.34C214.82 41.6067 213.607 42.24 211.94 42.24ZM211.94 40.78C212.487 40.78 212.953 40.6667 213.34 40.44C213.727 40.2133 214.04 39.8933 214.28 39.48C214.52 39.0667 214.693 38.58 214.8 38.02C214.92 37.46 214.98 36.84 214.98 36.16V33.88C214.98 33.2 214.92 32.58 214.8 32.02C214.693 31.46 214.52 30.9733 214.28 30.56C214.04 30.1467 213.727 29.8267 213.34 29.6C212.953 29.3733 212.487 29.26 211.94 29.26C211.393 29.26 210.927 29.3733 210.54 29.6C210.153 29.8267 209.84 30.1467 209.6 30.56C209.36 30.9733 209.18 31.46 209.06 32.02C208.953 32.58 208.9 33.2 208.9 33.88V36.16C208.9 36.84 208.953 37.46 209.06 38.02C209.18 38.58 209.36 39.0667 209.6 39.48C209.84 39.8933 210.153 40.2133 210.54 40.44C210.927 40.6667 211.393 40.78 211.94 40.78ZM228.712 42H219.552V40.28L224.112 36.08C224.766 35.48 225.312 34.8467 225.752 34.18C226.192 33.5 226.412 32.82 226.412 32.14V31.9C226.412 31.1267 226.199 30.5 225.772 30.02C225.346 29.54 224.699 29.3 223.832 29.3C223.406 29.3 223.032 29.36 222.712 29.48C222.392 29.6 222.112 29.7667 221.872 29.98C221.646 30.1933 221.452 30.4467 221.292 30.74C221.146 31.02 221.026 31.3267 220.932 31.66L219.432 31.08C219.566 30.6667 219.746 30.2667 219.972 29.88C220.212 29.48 220.506 29.1267 220.852 28.82C221.212 28.5133 221.639 28.2667 222.132 28.08C222.639 27.8933 223.232 27.8 223.912 27.8C224.592 27.8 225.199 27.9 225.732 28.1C226.266 28.3 226.712 28.58 227.072 28.94C227.432 29.3 227.706 29.7267 227.892 30.22C228.092 30.7133 228.192 31.26 228.192 31.86C228.192 32.4067 228.112 32.9133 227.952 33.38C227.806 33.8467 227.599 34.2933 227.332 34.72C227.066 35.1333 226.739 35.54 226.352 35.94C225.979 36.34 225.572 36.74 225.132 37.14L221.372 40.52H228.712V42ZM236.164 42.24C234.498 42.24 233.278 41.6067 232.504 40.34C231.744 39.0733 231.364 37.3 231.364 35.02C231.364 32.74 231.744 30.9667 232.504 29.7C233.278 28.4333 234.498 27.8 236.164 27.8C237.831 27.8 239.044 28.4333 239.804 29.7C240.578 30.9667 240.964 32.74 240.964 35.02C240.964 37.3 240.578 39.0733 239.804 40.34C239.044 41.6067 237.831 42.24 236.164 42.24ZM236.164 40.78C236.711 40.78 237.178 40.6667 237.564 40.44C237.951 40.2133 238.264 39.8933 238.504 39.48C238.744 39.0667 238.918 38.58 239.024 38.02C239.144 37.46 239.204 36.84 239.204 36.16V33.88C239.204 33.2 239.144 32.58 239.024 32.02C238.918 31.46 238.744 30.9733 238.504 30.56C238.264 30.1467 237.951 29.8267 237.564 29.6C237.178 29.3733 236.711 29.26 236.164 29.26C235.618 29.26 235.151 29.3733 234.764 29.6C234.378 29.8267 234.064 30.1467 233.824 30.56C233.584 30.9733 233.404 31.46 233.284 32.02C233.178 32.58 233.124 33.2 233.124 33.88V36.16C233.124 36.84 233.178 37.46 233.284 38.02C233.404 38.58 233.584 39.0667 233.824 39.48C234.064 39.8933 234.378 40.2133 234.764 40.44C235.151 40.6667 235.618 40.78 236.164 40.78Z" fill="#4F4F4F"/>
<defs>
<linearGradient id="paint0_linear" x1="253.208" y1="173.253" x2="253.208" y2="134" gradientUnits="userSpaceOnUse">
<stop offset="0.0104167" stop-color="#FB0606"/>
<stop offset="1" stop-color="#ED8F02"/>
</linearGradient>
<linearGradient id="paint1_linear" x1="173.208" y1="131.253" x2="173.208" y2="92" gradientUnits="userSpaceOnUse">
<stop offset="0.0104167" stop-color="#FB0606"/>
<stop offset="1" stop-color="#ED8F02"/>
</linearGradient>
</defs>
</svg>
