<svg width="37" height="31" viewBox="0 0 37 31" fill="none" xmlns="http://www.w3.org/2000/svg">
<g filter="url(#filter0_d)">
<rect x="2" y="2" width="29" height="22.2938" rx="2" fill="url(#paint0_linear)"/>
</g>
<path d="M2 4C2 2.89543 2.89543 2 4 2H29C30.1046 2 31 2.89543 31 4V7.57344H2V4Z" fill="#FF0101"/>
<g filter="url(#filter1_i)">
<ellipse cx="10.1378" cy="4.358" rx="1.43027" ry="1.15756" fill="white"/>
<ellipse cx="10.1378" cy="4.358" rx="1.43027" ry="1.15756" fill="white"/>
<ellipse cx="10.1378" cy="4.358" rx="1.43027" ry="1.15756" fill="#FCFEFF"/>
</g>
<ellipse cx="7.57309" cy="13.9615" rx="1.43027" ry="1.15756" fill="white"/>
<ellipse cx="7.57309" cy="13.9615" rx="1.43027" ry="1.15756" fill="white"/>
<ellipse cx="7.57309" cy="13.9615" rx="1.43027" ry="1.15756" fill="white" fill-opacity="0.51"/>
<ellipse cx="7.57309" cy="17.2198" rx="1.43027" ry="1.15756" fill="white"/>
<ellipse cx="7.57309" cy="17.2198" rx="1.43027" ry="1.15756" fill="white"/>
<ellipse cx="7.57309" cy="17.2198" rx="1.43027" ry="1.15756" fill="white" fill-opacity="0.51"/>
<ellipse cx="7.57309" cy="20.4781" rx="1.43027" ry="1.15756" fill="white"/>
<ellipse cx="7.57309" cy="20.4781" rx="1.43027" ry="1.15756" fill="white"/>
<ellipse cx="7.57309" cy="20.4781" rx="1.43027" ry="1.15756" fill="white" fill-opacity="0.51"/>
<ellipse cx="11.9132" cy="13.9615" rx="1.43027" ry="1.15756" fill="white"/>
<ellipse cx="11.9132" cy="13.9615" rx="1.43027" ry="1.15756" fill="white"/>
<ellipse cx="11.9132" cy="13.9615" rx="1.43027" ry="1.15756" fill="white" fill-opacity="0.51"/>
<ellipse cx="11.9132" cy="17.2198" rx="1.43027" ry="1.15756" fill="white"/>
<ellipse cx="11.9132" cy="17.2198" rx="1.43027" ry="1.15756" fill="white"/>
<ellipse cx="11.9132" cy="17.2198" rx="1.43027" ry="1.15756" fill="white" fill-opacity="0.51"/>
<ellipse cx="11.9132" cy="20.4781" rx="1.43027" ry="1.15756" fill="white"/>
<ellipse cx="11.9132" cy="20.4781" rx="1.43027" ry="1.15756" fill="white"/>
<ellipse cx="11.9132" cy="20.4781" rx="1.43027" ry="1.15756" fill="white" fill-opacity="0.51"/>
<ellipse cx="16.2534" cy="13.9615" rx="1.43027" ry="1.15756" fill="white"/>
<ellipse cx="16.2534" cy="13.9615" rx="1.43027" ry="1.15756" fill="white"/>
<ellipse cx="16.2534" cy="13.9615" rx="1.43027" ry="1.15756" fill="white" fill-opacity="0.51"/>
<ellipse cx="16.2534" cy="17.2198" rx="1.43027" ry="1.15756" fill="white"/>
<ellipse cx="16.2534" cy="17.2198" rx="1.43027" ry="1.15756" fill="white"/>
<ellipse cx="16.2534" cy="17.2198" rx="1.43027" ry="1.15756" fill="white" fill-opacity="0.51"/>
<ellipse cx="16.2534" cy="20.4781" rx="1.43027" ry="1.15756" fill="white"/>
<ellipse cx="16.2534" cy="20.4781" rx="1.43027" ry="1.15756" fill="white"/>
<ellipse cx="16.2534" cy="20.4781" rx="1.43027" ry="1.15756" fill="white" fill-opacity="0.51"/>
<ellipse cx="20.5935" cy="13.9615" rx="1.43027" ry="1.15756" fill="white"/>
<ellipse cx="20.5935" cy="13.9615" rx="1.43027" ry="1.15756" fill="white"/>
<ellipse cx="20.5935" cy="13.9615" rx="1.43027" ry="1.15756" fill="#4FBFFF"/>
<ellipse cx="20.5935" cy="10.9604" rx="1.43027" ry="1.15756" fill="white"/>
<ellipse cx="20.5935" cy="10.9604" rx="1.43027" ry="1.15756" fill="white"/>
<ellipse cx="20.5935" cy="10.9604" rx="1.43027" ry="1.15756" fill="#4FBFFF"/>
<ellipse cx="20.5935" cy="16.9626" rx="1.43027" ry="1.15756" fill="white"/>
<ellipse cx="20.5935" cy="16.9626" rx="1.43027" ry="1.15756" fill="white"/>
<ellipse cx="20.5935" cy="16.9626" rx="1.43027" ry="1.15756" fill="#4FBFFF"/>
<ellipse cx="24.9338" cy="13.9615" rx="1.43027" ry="1.15756" fill="white"/>
<ellipse cx="24.9338" cy="13.9615" rx="1.43027" ry="1.15756" fill="white"/>
<ellipse cx="24.9338" cy="13.9615" rx="1.43027" ry="1.15756" fill="#4FBFFF"/>
<ellipse cx="24.9338" cy="10.9604" rx="1.43027" ry="1.15756" fill="white"/>
<ellipse cx="24.9338" cy="10.9604" rx="1.43027" ry="1.15756" fill="white"/>
<ellipse cx="24.9338" cy="10.9604" rx="1.43027" ry="1.15756" fill="#4FBFFF"/>
<ellipse cx="24.9338" cy="17.2198" rx="1.43027" ry="1.15756" fill="white"/>
<ellipse cx="24.9338" cy="17.2198" rx="1.43027" ry="1.15756" fill="white"/>
<ellipse cx="24.9338" cy="17.2198" rx="1.43027" ry="1.15756" fill="#4FBFFF"/>
<g filter="url(#filter2_i)">
<ellipse cx="22.8622" cy="4.358" rx="1.43027" ry="1.15756" fill="white"/>
<ellipse cx="22.8622" cy="4.358" rx="1.43027" ry="1.15756" fill="white"/>
<ellipse cx="22.8622" cy="4.358" rx="1.43027" ry="1.15756" fill="#FCFEFF"/>
</g>
<defs>
<filter id="filter0_d" x="0" y="0" width="37" height="30.2938" filterUnits="userSpaceOnUse" color-interpolation-filters="sRGB">
<feFlood flood-opacity="0" result="BackgroundImageFix"/>
<feColorMatrix in="SourceAlpha" type="matrix" values="0 0 0 0 0 0 0 0 0 0 0 0 0 0 0 0 0 0 127 0"/>
<feOffset dx="2" dy="2"/>
<feGaussianBlur stdDeviation="2"/>
<feColorMatrix type="matrix" values="0 0 0 0 0 0 0 0 0 0 0 0 0 0 0 0 0 0 0.25 0"/>
<feBlend mode="normal" in2="BackgroundImageFix" result="effect1_dropShadow"/>
<feBlend mode="normal" in="SourceGraphic" in2="effect1_dropShadow" result="shape"/>
</filter>
<filter id="filter1_i" x="8.70752" y="3.20044" width="3.86055" height="3.31512" filterUnits="userSpaceOnUse" color-interpolation-filters="sRGB">
<feFlood flood-opacity="0" result="BackgroundImageFix"/>
<feBlend mode="normal" in="SourceGraphic" in2="BackgroundImageFix" result="shape"/>
<feColorMatrix in="SourceAlpha" type="matrix" values="0 0 0 0 0 0 0 0 0 0 0 0 0 0 0 0 0 0 127 0" result="hardAlpha"/>
<feOffset dx="1" dy="1"/>
<feGaussianBlur stdDeviation="0.5"/>
<feComposite in2="hardAlpha" operator="arithmetic" k2="-1" k3="1"/>
<feColorMatrix type="matrix" values="0 0 0 0 0 0 0 0 0 0 0 0 0 0 0 0 0 0 0.38 0"/>
<feBlend mode="normal" in2="shape" result="effect1_innerShadow"/>
</filter>
<filter id="filter2_i" x="21.4319" y="3.20044" width="3.86055" height="3.31512" filterUnits="userSpaceOnUse" color-interpolation-filters="sRGB">
<feFlood flood-opacity="0" result="BackgroundImageFix"/>
<feBlend mode="normal" in="SourceGraphic" in2="BackgroundImageFix" result="shape"/>
<feColorMatrix in="SourceAlpha" type="matrix" values="0 0 0 0 0 0 0 0 0 0 0 0 0 0 0 0 0 0 127 0" result="hardAlpha"/>
<feOffset dx="1" dy="1"/>
<feGaussianBlur stdDeviation="0.5"/>
<feComposite in2="hardAlpha" operator="arithmetic" k2="-1" k3="1"/>
<feColorMatrix type="matrix" values="0 0 0 0 0 0 0 0 0 0 0 0 0 0 0 0 0 0 0.38 0"/>
<feBlend mode="normal" in2="shape" result="effect1_innerShadow"/>
</filter>
<linearGradient id="paint0_linear" x1="16.6883" y1="29.347" x2="16.6883" y2="2" gradientUnits="userSpaceOnUse">
<stop offset="0.0104167" stop-color="#FB0606"/>
<stop offset="1" stop-color="#ED8F02"/>
</linearGradient>
</defs>
</svg>
