<svg width="37" height="35" viewBox="0 0 37 35" fill="none" xmlns="http://www.w3.org/2000/svg">
<path fill-rule="evenodd" clip-rule="evenodd" d="M12.4453 26.25C13.9283 26.25 15.1304 27.4253 15.1304 28.875C15.1304 30.3248 13.9283 31.5 12.4453 31.5C10.9624 31.5 9.76028 30.3248 9.76028 28.875C9.76028 27.4253 10.9624 26.25 12.4453 26.25ZM24.9757 26.25C26.4586 26.25 27.6607 27.4253 27.6607 28.875C27.6607 30.3248 26.4586 31.5 24.9757 31.5C23.4927 31.5 22.2906 30.3248 22.2906 28.875C22.2906 27.4253 23.4927 26.25 24.9757 26.25ZM6.18018 3.5H9.76027C10.6783 3.5 11.4349 4.17557 11.5383 5.04591L11.5503 5.25V7H31.2408C32.3601 7 33.1865 7.98576 33.0075 9.03376L32.962 9.23076L30.1238 18.9423C29.495 21.0937 27.5465 22.6073 25.2853 22.7405L24.9603 22.75H13.3404C10.4804 22.75 8.14268 20.5644 7.97934 17.8085L7.97023 17.5V7H6.18018C5.19157 7 4.39014 6.2165 4.39014 5.25C4.39014 4.35254 5.08117 3.61286 5.97142 3.51177L6.18018 3.5H9.76027H6.18018ZM28.8677 10.5H11.5503V17.5C11.5503 18.3975 12.2413 19.1371 13.1316 19.2382L13.3404 19.25H24.9603C25.6868 19.25 26.3334 18.8219 26.6099 18.1797L26.6814 17.9808L28.8677 10.5Z" fill="white"/>
<path fill-rule="evenodd" clip-rule="evenodd" d="M12.4453 26.25C13.9283 26.25 15.1304 27.4253 15.1304 28.875C15.1304 30.3248 13.9283 31.5 12.4453 31.5C10.9624 31.5 9.76028 30.3248 9.76028 28.875C9.76028 27.4253 10.9624 26.25 12.4453 26.25ZM24.9757 26.25C26.4586 26.25 27.6607 27.4253 27.6607 28.875C27.6607 30.3248 26.4586 31.5 24.9757 31.5C23.4927 31.5 22.2906 30.3248 22.2906 28.875C22.2906 27.4253 23.4927 26.25 24.9757 26.25ZM6.18018 3.5H9.76027C10.6783 3.5 11.4349 4.17557 11.5383 5.04591L11.5503 5.25V7H31.2408C32.3601 7 33.1865 7.98576 33.0075 9.03376L32.962 9.23076L30.1238 18.9423C29.495 21.0937 27.5465 22.6073 25.2853 22.7405L24.9603 22.75H13.3404C10.4804 22.75 8.14268 20.5644 7.97934 17.8085L7.97023 17.5V7H6.18018C5.19157 7 4.39014 6.2165 4.39014 5.25C4.39014 4.35254 5.08117 3.61286 5.97142 3.51177L6.18018 3.5H9.76027H6.18018ZM28.8677 10.5H11.5503V17.5C11.5503 18.3975 12.2413 19.1371 13.1316 19.2382L13.3404 19.25H24.9603C25.6868 19.25 26.3334 18.8219 26.6099 18.1797L26.6814 17.9808L28.8677 10.5Z" fill="white"/>
<path fill-rule="evenodd" clip-rule="evenodd" d="M12.4453 26.25C13.9283 26.25 15.1304 27.4253 15.1304 28.875C15.1304 30.3248 13.9283 31.5 12.4453 31.5C10.9624 31.5 9.76028 30.3248 9.76028 28.875C9.76028 27.4253 10.9624 26.25 12.4453 26.25ZM24.9757 26.25C26.4586 26.25 27.6607 27.4253 27.6607 28.875C27.6607 30.3248 26.4586 31.5 24.9757 31.5C23.4927 31.5 22.2906 30.3248 22.2906 28.875C22.2906 27.4253 23.4927 26.25 24.9757 26.25ZM6.18018 3.5H9.76027C10.6783 3.5 11.4349 4.17557 11.5383 5.04591L11.5503 5.25V7H31.2408C32.3601 7 33.1865 7.98576 33.0075 9.03376L32.962 9.23076L30.1238 18.9423C29.495 21.0937 27.5465 22.6073 25.2853 22.7405L24.9603 22.75H13.3404C10.4804 22.75 8.14268 20.5644 7.97934 17.8085L7.97023 17.5V7H6.18018C5.19157 7 4.39014 6.2165 4.39014 5.25C4.39014 4.35254 5.08117 3.61286 5.97142 3.51177L6.18018 3.5H9.76027H6.18018ZM28.8677 10.5H11.5503V17.5C11.5503 18.3975 12.2413 19.1371 13.1316 19.2382L13.3404 19.25H24.9603C25.6868 19.25 26.3334 18.8219 26.6099 18.1797L26.6814 17.9808L28.8677 10.5Z" fill="white" fill-opacity="0.51"/>
</svg>
