<svg width="27" height="29" viewBox="0 0 27 29" fill="none" xmlns="http://www.w3.org/2000/svg">
<path fill-rule="evenodd" clip-rule="evenodd" d="M1.125 14.5C3.07125 9.19542 7.875 5.4375 13.5 5.4375C19.125 5.4375 23.9287 9.19542 25.875 14.5C23.9287 19.8046 19.125 23.5625 13.5 23.5625C7.875 23.5625 3.07125 19.8046 1.125 14.5ZM23.4225 14.5C21.5662 10.4279 17.7637 7.85417 13.5 7.85417C9.23625 7.85417 5.43375 10.4279 3.5775 14.5C5.43375 18.5721 9.225 21.1458 13.5 21.1458C17.775 21.1458 21.5662 18.5721 23.4225 14.5ZM13.5 11.4792C15.0525 11.4792 16.3125 12.8325 16.3125 14.5C16.3125 16.1675 15.0525 17.5208 13.5 17.5208C11.9475 17.5208 10.6875 16.1675 10.6875 14.5C10.6875 12.8325 11.9475 11.4792 13.5 11.4792ZM8.43748 14.5C8.43748 11.5033 10.71 9.0625 13.5 9.0625C16.29 9.0625 18.5625 11.5033 18.5625 14.5C18.5625 17.4967 16.29 19.9375 13.5 19.9375C10.71 19.9375 8.43748 17.4967 8.43748 14.5Z" fill="#2F80ED"/>
</svg>
