<svg width="27" height="27" viewBox="0 0 27 27" fill="none" xmlns="http://www.w3.org/2000/svg">
<circle cx="13.5" cy="13.5" r="13.5" fill="#F25022"/>
<g clip-path="url(#clip0)">
<path d="M19.3723 14.8464C19.1919 12.4974 18.0982 11.0255 17.1334 9.72652C16.24 8.52398 15.4684 7.48553 15.4684 5.95366C15.4684 5.83061 15.3995 5.71814 15.2903 5.66176C15.1807 5.60503 15.049 5.61432 14.9493 5.68674C13.5003 6.72359 12.2913 8.47113 11.869 10.1385C11.5758 11.2994 11.537 12.6044 11.5316 13.4663C10.1935 13.1805 9.89033 11.1789 9.88713 11.1571C9.87206 11.0533 9.80863 10.963 9.71634 10.9136C9.6231 10.8649 9.5135 10.8614 9.41897 10.9082C9.3488 10.9421 7.69662 11.7816 7.60049 15.1334C7.59375 15.245 7.59344 15.3568 7.59344 15.4686C7.59344 18.725 10.2431 21.3745 13.4997 21.3745C13.5042 21.3748 13.509 21.3754 13.5128 21.3745C13.5141 21.3745 13.5154 21.3745 13.517 21.3745C16.7656 21.3652 19.4059 18.7192 19.4059 15.4686C19.4059 15.3049 19.3723 14.8464 19.3723 14.8464ZM13.4997 20.7183C12.4141 20.7183 11.5309 19.7775 11.5309 18.6212C11.5309 18.5818 11.5306 18.542 11.5335 18.4933C11.5466 18.0057 11.6393 17.6728 11.7408 17.4513C11.9312 17.8602 12.2715 18.236 12.8242 18.236C13.0056 18.236 13.1524 18.0893 13.1524 17.9079C13.1524 17.4408 13.162 16.9018 13.2783 16.4154C13.3818 15.9842 13.6292 15.5253 13.9426 15.1575C14.082 15.6349 14.3537 16.0213 14.619 16.3985C14.9987 16.938 15.3913 17.4959 15.4602 18.4472C15.4643 18.5036 15.4685 18.5603 15.4685 18.6212C15.4684 19.7775 14.5853 20.7183 13.4997 20.7183Z" fill="white"/>
</g>
<defs>
<clipPath id="clip0">
<rect width="15.75" height="15.75" fill="white" transform="translate(5.62469 5.62497)"/>
</clipPath>
</defs>
</svg>
