<svg width="21" height="18" viewBox="0 0 21 18" fill="none" xmlns="http://www.w3.org/2000/svg">
<path d="M10.5 18L1.50692 9.26393C1.00078 8.73128 0.607601 8.10701 0.349822 7.42675C0.092043 6.7465 -0.0252839 6.02358 0.00454058 5.29927C0.0647738 3.83648 0.720728 2.45684 1.8281 1.46386C2.93548 0.470882 4.40356 -0.0540965 5.90939 0.0044153C7.41522 0.0629271 8.83544 0.700136 9.85764 1.77586C10.0478 1.89928 10.2713 1.96515 10.5 1.96515C10.7287 1.96515 10.9522 1.89928 11.1424 1.77586C12.1646 0.700136 13.5848 0.0629271 15.0906 0.0044153C16.5964 -0.0540965 18.0645 0.470882 19.1719 1.46386C20.2793 2.45684 20.9352 3.83648 20.9955 5.29927C21.0557 6.76207 20.5153 8.1882 19.4931 9.26393L10.5 18Z" fill="#F25022"/>
</svg>
