<svg width="29" height="24" viewBox="0 0 29 24" fill="none" xmlns="http://www.w3.org/2000/svg">
<path d="M7.25 15C9.25203 15 10.875 13.6569 10.875 12C10.875 10.3431 9.25203 9 7.25 9C5.24797 9 3.625 10.3431 3.625 12C3.625 13.6569 5.24797 15 7.25 15Z" stroke="#2F80ED" stroke-width="2" stroke-linecap="round" stroke-linejoin="round"/>
<path d="M21.75 9C23.752 9 25.375 7.65685 25.375 6C25.375 4.34315 23.752 3 21.75 3C19.748 3 18.125 4.34315 18.125 6C18.125 7.65685 19.748 9 21.75 9Z" stroke="#2F80ED" stroke-width="2" stroke-linecap="round" stroke-linejoin="round"/>
<path d="M21.75 21C23.752 21 25.375 19.6569 25.375 18C25.375 16.3431 23.752 15 21.75 15C19.748 15 18.125 16.3431 18.125 18C18.125 19.6569 19.748 21 21.75 21Z" stroke="#2F80ED" stroke-width="2" stroke-linecap="round" stroke-linejoin="round"/>
<path d="M10.5125 10.7L18.4875 7.29999" stroke="#2F80ED" stroke-width="2" stroke-linecap="round" stroke-linejoin="round"/>
<path d="M10.5125 13.3L18.4875 16.7" stroke="#2F80ED" stroke-width="2" stroke-linecap="round" stroke-linejoin="round"/>
</svg>
