<svg width="22" height="23" viewBox="0 0 22 23" fill="none" xmlns="http://www.w3.org/2000/svg">
<path fill-rule="evenodd" clip-rule="evenodd" d="M7.19762 0H15.2018C18.8851 0 21.8719 3.21856 21.8719 7.1875V15.8125C21.8719 19.7814 18.8851 23 15.2018 23H7.19762C3.51436 23 0.527466 19.7814 0.527466 15.8125V7.1875C0.527466 3.21856 3.51436 0 7.19762 0ZM15.2 20.8436C17.7747 20.8436 19.8691 18.5868 19.8691 15.8124V7.18745C19.8691 4.41309 17.7747 2.15622 15.2 2.15622H7.19584C4.62116 2.15622 2.52673 4.41309 2.52673 7.18745V15.8124C2.52673 18.5868 4.62116 20.8436 7.19584 20.8436H15.2Z" fill="#F25022"/>
<path fill-rule="evenodd" clip-rule="evenodd" d="M5.86243 11.5C5.86243 8.32456 8.25165 5.75 11.1985 5.75C14.1453 5.75 16.5345 8.32456 16.5345 11.5C16.5345 14.6754 14.1453 17.25 11.1985 17.25C8.25165 17.25 5.86243 14.6754 5.86243 11.5ZM7.85254 11.5C7.85254 13.4809 9.3493 15.0937 11.1876 15.0937C13.0258 15.0937 14.5226 13.4809 14.5226 11.5C14.5226 9.51771 13.0258 7.90628 11.1876 7.90628C9.3493 7.90628 7.85254 9.51771 7.85254 11.5Z" fill="#F25022"/>
<ellipse cx="16.9316" cy="5.31891" rx="0.70636" ry="0.766177" fill="#F25022"/>
</svg>
