<svg width="27" height="23" viewBox="0 0 27 23" fill="none" xmlns="http://www.w3.org/2000/svg">
<path d="M26.5752 2.70393C25.6051 3.1625 24.5713 3.46645 23.4936 3.61403C24.6023 2.90071 25.4485 1.77978 25.8464 0.428694C24.8126 1.09282 23.6713 1.56192 22.455 1.82371C21.4734 0.697506 20.0745 0 18.5484 0C15.5874 0 13.2036 2.58973 13.2036 5.76453C13.2036 6.22133 13.2395 6.66057 13.3276 7.07872C8.88125 6.84505 4.94691 4.54872 2.3039 1.05065C1.84248 1.91331 1.57182 2.90071 1.57182 3.96366C1.57182 5.95955 2.52565 7.72879 3.94742 8.75309C3.08816 8.73552 2.2452 8.4667 1.53105 8.04328C1.53105 8.06085 1.53105 8.08369 1.53105 8.10653C1.53105 10.9071 3.38491 13.2333 5.81595 13.7692C5.38061 13.8974 4.90614 13.9589 4.41374 13.9589C4.07134 13.9589 3.72568 13.9378 3.40121 13.8605C4.09417 16.1428 6.06052 17.8207 8.39863 17.8751C6.57901 19.4089 4.26863 20.3331 1.76747 20.3331C1.32888 20.3331 0.908212 20.312 0.487549 20.254C2.85663 21.9003 5.66432 22.8403 8.69211 22.8403C18.5337 22.8403 23.9143 14.0555 23.9143 6.44095C23.9143 6.18619 23.9061 5.94022 23.8947 5.69601C24.9561 4.8843 25.848 3.87054 26.5752 2.70393Z" fill="#F25022"/>
</svg>
