<svg width="49" height="41" viewBox="0 0 49 41" fill="none" xmlns="http://www.w3.org/2000/svg">
<path d="M18.375 8.54163H38.7917L42.875 11.9583L38.7917 15.375H18.375C17.8336 15.375 17.3143 15.195 16.9314 14.8746C16.5485 14.5542 16.3334 14.1197 16.3334 13.6666V10.25C16.3334 9.79688 16.5485 9.36236 16.9314 9.04199C17.3143 8.72161 17.8336 8.54163 18.375 8.54163" stroke="#828282" stroke-width="2.33333" stroke-linecap="round" stroke-linejoin="round"/>
<path d="M26.5416 22.2084H12.25L8.16663 25.625L12.25 29.0417H26.5416C27.0831 29.0417 27.6024 28.8617 27.9853 28.5414C28.3682 28.221 28.5833 27.7865 28.5833 27.3334V23.9167C28.5833 23.4636 28.3682 23.0291 27.9853 22.7087C27.6024 22.3884 27.0831 22.2084 26.5416 22.2084Z" stroke="#828282" stroke-width="2.33333" stroke-linecap="round" stroke-linejoin="round"/>
<path d="M24.5 37.5833V29.0416" stroke="#828282" stroke-width="2.33333" stroke-linecap="round" stroke-linejoin="round"/>
<path d="M24.5 22.2083V15.375" stroke="#828282" stroke-width="2.33333" stroke-linecap="round" stroke-linejoin="round"/>
<path d="M24.5 8.54167V5.125" stroke="#828282" stroke-width="2.33333" stroke-linecap="round" stroke-linejoin="round"/>
</svg>
