<svg width="37" height="38" viewBox="0 0 37 38" fill="none" xmlns="http://www.w3.org/2000/svg">
<path d="M7.70837 33.25C10.2627 33.25 12.3334 31.1234 12.3334 28.5C12.3334 25.8766 10.2627 23.75 7.70837 23.75C5.15406 23.75 3.08337 25.8766 3.08337 28.5C3.08337 31.1234 5.15406 33.25 7.70837 33.25Z" stroke="#828282" stroke-width="3" stroke-linecap="round" stroke-linejoin="round"/>
<path d="M29.2916 33.25C31.8459 33.25 33.9166 31.1234 33.9166 28.5C33.9166 25.8766 31.8459 23.75 29.2916 23.75C26.7373 23.75 24.6666 25.8766 24.6666 28.5C24.6666 31.1234 26.7373 33.25 29.2916 33.25Z" stroke="#828282" stroke-width="3" stroke-linecap="round" stroke-linejoin="round"/>
<path d="M18.5 30.0834V23.7501L13.875 19.0001L21.5833 12.6667L24.6667 17.4167H29.2917" stroke="#828282" stroke-width="4" stroke-linecap="round" stroke-linejoin="round"/>
<path d="M26.2083 9.49992C27.0597 9.49992 27.75 8.79104 27.75 7.91658C27.75 7.04213 27.0597 6.33325 26.2083 6.33325C25.3569 6.33325 24.6666 7.04213 24.6666 7.91658C24.6666 8.79104 25.3569 9.49992 26.2083 9.49992Z" stroke="#828282" stroke-width="2.33333" stroke-linecap="round" stroke-linejoin="round"/>
</svg>
