<svg width="45" height="48" viewBox="0 0 45 48" fill="none" xmlns="http://www.w3.org/2000/svg">
<path d="M22.5 14C22.5 9.58172 19.1421 6 15 6C10.8579 6 7.5 9.58172 7.5 14V26C7.5 30.4183 10.8579 34 15 34C19.1421 34 22.5 30.4183 22.5 26V14Z" stroke="#828282" stroke-width="2" stroke-linecap="round" stroke-linejoin="round"/>
<path d="M31.875 14H28.125C25.0184 14 22.5 16.6863 22.5 20V28C22.5 31.3137 25.0184 34 28.125 34H31.875C34.9816 34 37.5 31.3137 37.5 28V20C37.5 16.6863 34.9816 14 31.875 14Z" stroke="#828282" stroke-width="2" stroke-linecap="round" stroke-linejoin="round"/>
<path d="M15 42V26" stroke="#828282" stroke-width="2" stroke-linecap="round" stroke-linejoin="round"/>
<path d="M30 42V28" stroke="#828282" stroke-width="2" stroke-linecap="round" stroke-linejoin="round"/>
</svg>
