<svg width="17" height="21" viewBox="0 0 17 21" fill="none" xmlns="http://www.w3.org/2000/svg">
<path d="M16.1126 12.2452C15.8787 9.20027 14.461 7.29215 13.2103 5.60833C12.0522 4.04948 11.052 2.70334 11.052 0.71758C11.052 0.558075 10.9627 0.412287 10.8211 0.339193C10.679 0.265662 10.5083 0.277704 10.3791 0.371573C8.50078 1.71564 6.93356 3.98098 6.3861 6.14243C6.00604 7.64724 5.95575 9.33896 5.94869 10.4563C4.21407 10.0858 3.82113 7.49109 3.81699 7.46282C3.79745 7.32823 3.71522 7.21112 3.59559 7.14716C3.47473 7.08403 3.33265 7.07945 3.21011 7.1401C3.11915 7.18412 0.977434 8.27235 0.85282 12.6173C0.844088 12.7619 0.843689 12.9068 0.843689 13.0518C0.843689 17.273 4.27843 20.7075 8.49994 20.7075C8.50576 20.7079 8.51198 20.7088 8.51697 20.7075C8.51864 20.7075 8.52028 20.7075 8.52235 20.7075C12.7335 20.6954 16.1562 17.2655 16.1562 13.0518C16.1562 12.8395 16.1126 12.2452 16.1126 12.2452ZM8.49994 19.8569C7.09263 19.8569 5.94786 18.6374 5.94786 17.1384C5.94786 17.0874 5.94746 17.0358 5.95117 16.9727C5.96819 16.3406 6.08826 15.909 6.21993 15.622C6.46669 16.152 6.9078 16.6392 7.62434 16.6392C7.85945 16.6392 8.0497 16.4489 8.0497 16.2139C8.0497 15.6083 8.06218 14.9097 8.21295 14.2792C8.34713 13.7201 8.66778 13.1253 9.07404 12.6485C9.25472 13.2674 9.60699 13.7683 9.95092 14.2571C10.4432 14.9566 10.952 15.6797 11.0413 16.9129C11.0467 16.986 11.0521 17.0595 11.0521 17.1384C11.052 18.6374 9.90726 19.8569 8.49994 19.8569Z" fill="white"/>
</svg>
