<svg width="176" height="44" viewBox="0 0 176 44" fill="none" xmlns="http://www.w3.org/2000/svg">
<rect width="5.07275" height="20.4245" rx="2.53638" transform="matrix(-0.999822 0.018855 0.016154 0.99987 16.0518 12.9805)" fill="#6CD548"/>
<rect width="5.1381" height="21.6509" rx="2.56905" transform="matrix(-0.786609 -0.617452 -0.558034 0.829818 26.1337 2.66077)" fill="#03A4FF"/>
<rect width="5.1381" height="21.7698" rx="2.56905" transform="matrix(0.786609 -0.617452 0.558034 0.829818 0.988373 2.66077)" fill="#FF0101"/>
<path d="M34.9522 32.1884C34.796 31.8759 34.669 31.3192 34.5714 30.5184C33.3116 31.827 31.8077 32.4813 30.0596 32.4813C28.4971 32.4813 27.213 32.0419 26.2071 31.163C25.211 30.2743 24.713 29.1512 24.713 27.7938C24.713 26.1434 25.338 24.8641 26.588 23.9559C27.8477 23.038 29.6153 22.579 31.8907 22.579H34.5274V21.3339C34.5274 20.3866 34.2442 19.6346 33.6778 19.078C33.1114 18.5116 32.2764 18.2284 31.1729 18.2284C30.2061 18.2284 29.3956 18.4725 28.7413 18.9608C28.087 19.4491 27.7598 20.0399 27.7598 20.7333H25.0352C25.0352 19.9423 25.3135 19.1805 25.8702 18.4481C26.4366 17.7059 27.1983 17.12 28.1553 16.6903C29.1221 16.2606 30.1817 16.0458 31.334 16.0458C33.1602 16.0458 34.5909 16.5048 35.626 17.4227C36.6612 18.3309 37.1983 19.5858 37.2374 21.1874V28.4823C37.2374 29.9374 37.4229 31.0946 37.794 31.954V32.1884H34.9522ZM30.4551 30.1229C31.3047 30.1229 32.1104 29.9032 32.8721 29.4637C33.6339 29.0243 34.1856 28.453 34.5274 27.7499V24.4979H32.4034C29.0831 24.4979 27.4229 25.4696 27.4229 27.413C27.4229 28.2626 27.7061 28.9266 28.2725 29.4052C28.8389 29.8837 29.5665 30.1229 30.4551 30.1229ZM49.1465 18.7704C48.7364 18.702 48.2921 18.6678 47.8135 18.6678C46.0362 18.6678 44.8301 19.4247 44.1954 20.9384V32.1884H41.4854V16.3387H44.1221L44.1661 18.1698C45.0547 16.7538 46.3145 16.0458 47.9454 16.0458C48.4727 16.0458 48.8731 16.1141 49.1465 16.2509V18.7704ZM54.2003 16.3387L54.2735 18.0966C55.4356 16.7294 57.003 16.0458 58.9756 16.0458C61.1924 16.0458 62.7012 16.8954 63.502 18.5946C64.0294 17.8329 64.713 17.2177 65.5528 16.7489C66.4024 16.2802 67.4034 16.0458 68.5557 16.0458C72.0323 16.0458 73.7999 17.8866 73.8585 21.5682V32.1884H71.1485V21.7294C71.1485 20.5966 70.8897 19.7518 70.3721 19.1952C69.8546 18.6288 68.9854 18.3456 67.7647 18.3456C66.7589 18.3456 65.9239 18.6483 65.2598 19.2538C64.5958 19.8495 64.21 20.6552 64.1026 21.6708V32.1884H61.378V21.8026C61.378 19.4979 60.2501 18.3456 57.9942 18.3456C56.2169 18.3456 55.001 19.1024 54.3467 20.6161V32.1884H51.6368V16.3387H54.2003ZM87.7452 32.1884C87.5889 31.8759 87.462 31.3192 87.3643 30.5184C86.1046 31.827 84.6006 32.4813 82.8526 32.4813C81.2901 32.4813 80.0059 32.0419 79.0001 31.163C78.004 30.2743 77.5059 29.1512 77.5059 27.7938C77.5059 26.1434 78.1309 24.8641 79.3809 23.9559C80.6407 23.038 82.4083 22.579 84.6837 22.579H87.3204V21.3339C87.3204 20.3866 87.0372 19.6346 86.4708 19.078C85.9044 18.5116 85.0694 18.2284 83.9659 18.2284C82.9991 18.2284 82.1885 18.4725 81.5342 18.9608C80.8799 19.4491 80.5528 20.0399 80.5528 20.7333H77.8282C77.8282 19.9423 78.1065 19.1805 78.6631 18.4481C79.2296 17.7059 79.9913 17.12 80.9483 16.6903C81.9151 16.2606 82.9747 16.0458 84.127 16.0458C85.9532 16.0458 87.3839 16.5048 88.419 17.4227C89.4542 18.3309 89.9913 19.5858 90.0303 21.1874V28.4823C90.0303 29.9374 90.2159 31.0946 90.587 31.954V32.1884H87.7452ZM83.2481 30.1229C84.0977 30.1229 84.9034 29.9032 85.6651 29.4637C86.4268 29.0243 86.9786 28.453 87.3204 27.7499V24.4979H85.1964C81.876 24.4979 80.2159 25.4696 80.2159 27.413C80.2159 28.2626 80.4991 28.9266 81.0655 29.4052C81.6319 29.8837 82.3594 30.1229 83.2481 30.1229ZM94.337 30.7675C94.337 30.2987 94.4737 29.9081 94.7471 29.5956C95.0303 29.2831 95.4503 29.1268 96.0069 29.1268C96.5635 29.1268 96.9835 29.2831 97.2667 29.5956C97.5596 29.9081 97.7061 30.2987 97.7061 30.7675C97.7061 31.2167 97.5596 31.5927 97.2667 31.8954C96.9835 32.1981 96.5635 32.3495 96.0069 32.3495C95.4503 32.3495 95.0303 32.1981 94.7471 31.8954C94.4737 31.5927 94.337 31.2167 94.337 30.7675ZM106.612 24.8495L104.913 26.6219V32.1884H102.203V9.68835H104.913V23.2968L106.363 21.5536L111.3 16.3387H114.596L108.429 22.9598L115.314 32.1884H112.135L106.612 24.8495ZM119.942 29.9764H129.215V32.1884H116.632V30.1962L125.377 18.58H116.764V16.3387H128.775V18.2577L119.942 29.9764Z" fill="#03A4FF"/>
</svg>
