<svg width="58" height="29" viewBox="0 0 58 29" fill="none" xmlns="http://www.w3.org/2000/svg">
<path d="M26.3181 1.65754C26.0586 2.12504 24.7393 4.53816 23.384 7.02004C22.0214 9.50879 20.8895 11.5438 20.8607 11.5438C20.8246 11.5438 20.0316 10.7394 19.08 9.75628C18.1356 8.77316 17.3426 7.96879 17.3209 7.96879C17.2993 7.96879 15.9079 10.4507 14.2281 13.4894C12.5484 16.5213 11.157 19.0169 11.1426 19.0375C11.1209 19.0582 10.5153 18.4944 9.80162 17.7794C9.08069 17.0713 8.4679 16.4938 8.43186 16.4938C8.3886 16.4938 2.53465 24.8263 0.710692 27.4869L0.220459 28.2019L0.645808 27.865C1.35953 27.2944 5.87255 23.6232 6.1393 23.3963L6.38441 23.1832L6.15372 22.6263C6.02395 22.3169 5.93023 22.035 5.94465 21.9938C5.97348 21.8975 8.54 19.3675 8.56883 19.4019C8.58325 19.4157 8.76348 20.2132 8.96534 21.1757C9.1672 22.1382 9.34023 22.9288 9.35465 22.9425C9.36186 22.9494 9.84488 22.7432 10.4288 22.4819C11.0056 22.2138 11.4814 22.0144 11.4814 22.0282C11.4814 22.0419 11.5967 22.9082 11.7337 23.9463C11.8707 24.9913 11.986 25.8713 11.986 25.9125C11.986 26.0019 12.6637 26.0019 13.2765 25.9057L13.7667 25.83L16.0881 27.3219C17.3642 28.14 18.424 28.8 18.4312 28.7932C18.4456 28.7794 17.7607 27.6038 16.91 26.1875C16.0593 24.7713 15.3456 23.575 15.3312 23.5338C15.3095 23.4994 16.7009 21.4232 18.4095 18.9275C20.1181 16.4388 21.6609 14.1907 21.834 13.9294L22.1512 13.4688L23.0163 13.8813C23.4921 14.1082 23.8958 14.2938 23.9102 14.2938C23.9319 14.2938 24.6312 12.6369 25.4746 10.6157C26.3181 8.59441 27.0319 6.93754 27.0535 6.93754C27.0751 6.93754 27.3995 8.16129 27.7744 9.66004C28.1493 11.1519 28.4809 12.41 28.5026 12.4513C28.5314 12.4994 28.9279 12.3344 29.5623 12.0182C30.1174 11.7363 30.5933 11.53 30.6221 11.5507C30.6437 11.5782 31.2998 13.0288 32.0712 14.7819C32.8498 16.535 33.4914 17.9788 33.5058 17.9925C33.513 18.0063 33.9095 17.9169 34.3781 17.8069C34.854 17.69 35.2577 17.6213 35.2937 17.6557C35.3874 17.745 39.9077 25.3969 39.9077 25.4657C39.9077 25.5 39.5256 26.2219 39.0642 27.0675C38.6028 27.9063 38.2279 28.6144 38.2279 28.635C38.2279 28.6832 38.6893 28.2982 42.0488 25.4382L44.673 23.2038L45.1488 23.3275C46.05 23.5682 45.8193 23.7057 47.4558 21.9113C48.2633 21.0313 48.9337 20.2957 48.9481 20.2819C48.9986 20.2132 49.0347 20.3782 49.287 21.7532C49.4312 22.5438 49.5826 23.355 49.6258 23.5475L49.6979 23.905L50.7433 23.5338C51.32 23.3275 51.8174 23.1625 51.8535 23.1625C51.8823 23.1625 52.3726 23.9532 52.9349 24.9157C53.4972 25.8782 53.9874 26.6825 54.0091 26.7032C54.0379 26.7169 54.3551 26.655 54.7084 26.5588L55.35 26.3938L55.8547 26.8888C56.1358 27.1638 56.6333 27.6657 56.9577 27.9957C57.2893 28.3325 57.5705 28.5938 57.5849 28.58C57.5921 28.5663 55.7465 26.1394 53.4828 23.1832C51.2191 20.2338 48.8977 17.195 48.3209 16.4319C47.7442 15.6757 47.2612 15.0569 47.2395 15.0569C47.2179 15.05 46.7277 15.7513 46.1509 16.6107C45.5742 17.47 45.0695 18.1782 45.0335 18.1919C44.9974 18.1988 43.1591 15.5175 40.9386 12.2313C38.7253 8.93816 36.9014 6.25004 36.8942 6.25004C36.8798 6.25004 36.1516 7.47379 35.2649 8.96566C34.3781 10.4575 33.6284 11.6744 33.5995 11.6813C33.5419 11.6813 33.2607 11.2413 29.793 5.59691C28.2358 3.06004 26.9237 0.949411 26.8733 0.901287C26.8012 0.825661 26.693 0.970036 26.3181 1.65754ZM38.6677 13.4963L39.85 16.2325L40.5349 15.5382L41.2198 14.8369L42.7842 16.8375C43.6493 17.9307 44.363 18.8588 44.3702 18.9C44.3919 18.9757 41.0323 23.8432 40.9674 23.85C40.9458 23.85 40.7079 23.4582 40.4412 22.97C40.1744 22.4888 39.6914 21.6157 39.3598 21.0313C38.026 18.6594 35.8056 14.6994 35.4307 14.0325L35.0414 13.3244L35.784 12.4513C37.2114 10.7738 37.3916 10.5813 37.4421 10.6707C37.4637 10.7119 38.0188 11.9838 38.6677 13.4963ZM19.2891 13.7507L19.8586 14.885L17.2921 18.7488C15.8863 20.88 14.7184 22.6263 14.6967 22.6332C14.6607 22.6469 12.3537 19.7457 12.296 19.6082C12.2744 19.56 12.4835 19.0032 12.7646 18.3707C13.0386 17.7313 13.3198 17.0438 13.3919 16.8375C13.6298 16.1294 14.2281 14.7063 14.293 14.7063C14.3291 14.7063 14.4156 14.8094 14.5021 14.9332C14.6679 15.1944 15.6844 16.15 15.7926 16.15C15.8358 16.15 15.9584 15.9232 16.0665 15.6482C16.254 15.1738 17.6021 12.0182 17.8688 11.4407L17.9914 11.1657L18.3591 11.8875C18.5609 12.2863 18.9791 13.125 19.2891 13.7507Z" fill="#828282"/>
</svg>
