<svg width="24" height="19" viewBox="0 0 24 19" fill="none" xmlns="http://www.w3.org/2000/svg">
<path fill-rule="evenodd" clip-rule="evenodd" d="M9.70795 12.526C8.09988 12.5256 6.55769 12.0184 5.41988 11.1158C4.28207 10.2131 3.6416 8.98878 3.63903 7.71142C3.63903 5.05359 6.35617 2.89217 9.70019 2.89063C13.0442 2.89063 15.7691 5.04896 15.7691 7.70525C15.7691 10.3631 13.052 12.5245 9.70795 12.526ZM22.7658 16.041L18.6182 12.7496C18.3027 12.5039 17.8836 12.3599 17.4421 12.3457C18.7186 11.0107 19.4092 9.38014 19.4081 7.70371C19.407 6.17915 18.8367 4.68909 17.7695 3.42197C16.7022 2.15485 15.1859 1.16758 13.4123 0.584997C11.6387 0.00241667 9.68737 -0.149304 7.80519 0.14902C5.92301 0.447345 4.19447 1.18232 2.83814 2.26099C1.48182 3.33967 0.558635 4.7136 0.185331 6.20905C-0.187973 7.7045 0.00537092 9.2543 0.740913 10.6625C1.47645 12.0706 2.72116 13.2739 4.31762 14.1201C5.91409 14.9664 7.79061 15.4176 9.7099 15.4167C11.8204 15.4158 13.8724 14.8657 15.5517 13.8503C15.577 14.1895 15.7342 14.524 16.0622 14.783L20.2097 18.0745C20.3777 18.2078 20.577 18.3135 20.7964 18.3857C21.0158 18.4578 21.251 18.4948 21.4884 18.4948C21.7259 18.4947 21.961 18.4575 22.1803 18.3852C22.3996 18.313 22.5989 18.2071 22.7667 18.0737C22.9346 17.9403 23.0677 17.7819 23.1584 17.6077C23.2492 17.4334 23.2959 17.2466 23.2958 17.058C23.2957 16.8694 23.2489 16.6826 23.1579 16.5084C23.067 16.3342 22.9337 16.1759 22.7658 16.0426" fill="white"/>
<path fill-rule="evenodd" clip-rule="evenodd" d="M9.70795 12.526C8.09988 12.5256 6.55769 12.0184 5.41988 11.1158C4.28207 10.2131 3.6416 8.98878 3.63903 7.71142C3.63903 5.05359 6.35617 2.89217 9.70019 2.89063C13.0442 2.89063 15.7691 5.04896 15.7691 7.70525C15.7691 10.3631 13.052 12.5245 9.70795 12.526ZM22.7658 16.041L18.6182 12.7496C18.3027 12.5039 17.8836 12.3599 17.4421 12.3457C18.7186 11.0107 19.4092 9.38014 19.4081 7.70371C19.407 6.17915 18.8367 4.68909 17.7695 3.42197C16.7022 2.15485 15.1859 1.16758 13.4123 0.584997C11.6387 0.00241667 9.68737 -0.149304 7.80519 0.14902C5.92301 0.447345 4.19447 1.18232 2.83814 2.26099C1.48182 3.33967 0.558635 4.7136 0.185331 6.20905C-0.187973 7.7045 0.00537092 9.2543 0.740913 10.6625C1.47645 12.0706 2.72116 13.2739 4.31762 14.1201C5.91409 14.9664 7.79061 15.4176 9.7099 15.4167C11.8204 15.4158 13.8724 14.8657 15.5517 13.8503C15.577 14.1895 15.7342 14.524 16.0622 14.783L20.2097 18.0745C20.3777 18.2078 20.577 18.3135 20.7964 18.3857C21.0158 18.4578 21.251 18.4948 21.4884 18.4948C21.7259 18.4947 21.961 18.4575 22.1803 18.3852C22.3996 18.313 22.5989 18.2071 22.7667 18.0737C22.9346 17.9403 23.0677 17.7819 23.1584 17.6077C23.2492 17.4334 23.2959 17.2466 23.2958 17.058C23.2957 16.8694 23.2489 16.6826 23.1579 16.5084C23.067 16.3342 22.9337 16.1759 22.7658 16.0426" fill="white"/>
<path fill-rule="evenodd" clip-rule="evenodd" d="M9.70795 12.526C8.09988 12.5256 6.55769 12.0184 5.41988 11.1158C4.28207 10.2131 3.6416 8.98878 3.63903 7.71142C3.63903 5.05359 6.35617 2.89217 9.70019 2.89063C13.0442 2.89063 15.7691 5.04896 15.7691 7.70525C15.7691 10.3631 13.052 12.5245 9.70795 12.526ZM22.7658 16.041L18.6182 12.7496C18.3027 12.5039 17.8836 12.3599 17.4421 12.3457C18.7186 11.0107 19.4092 9.38014 19.4081 7.70371C19.407 6.17915 18.8367 4.68909 17.7695 3.42197C16.7022 2.15485 15.1859 1.16758 13.4123 0.584997C11.6387 0.00241667 9.68737 -0.149304 7.80519 0.14902C5.92301 0.447345 4.19447 1.18232 2.83814 2.26099C1.48182 3.33967 0.558635 4.7136 0.185331 6.20905C-0.187973 7.7045 0.00537092 9.2543 0.740913 10.6625C1.47645 12.0706 2.72116 13.2739 4.31762 14.1201C5.91409 14.9664 7.79061 15.4176 9.7099 15.4167C11.8204 15.4158 13.8724 14.8657 15.5517 13.8503C15.577 14.1895 15.7342 14.524 16.0622 14.783L20.2097 18.0745C20.3777 18.2078 20.577 18.3135 20.7964 18.3857C21.0158 18.4578 21.251 18.4948 21.4884 18.4948C21.7259 18.4947 21.961 18.4575 22.1803 18.3852C22.3996 18.313 22.5989 18.2071 22.7667 18.0737C22.9346 17.9403 23.0677 17.7819 23.1584 17.6077C23.2492 17.4334 23.2959 17.2466 23.2958 17.058C23.2957 16.8694 23.2489 16.6826 23.1579 16.5084C23.067 16.3342 22.9337 16.1759 22.7658 16.0426" fill="white" fill-opacity="0.51"/>
</svg>
