<svg width="36" height="36" viewBox="0 0 36 36" fill="none" xmlns="http://www.w3.org/2000/svg">
<path d="M17.3571 31.5C24.813 31.5 30.8571 25.4558 30.8571 18C30.8571 10.5442 24.813 4.5 17.3571 4.5C9.9013 4.5 3.85715 10.5442 3.85715 18C3.85715 25.4558 9.9013 31.5 17.3571 31.5Z" stroke="#2F80ED" stroke-width="2" stroke-linecap="round" stroke-linejoin="round"/>
<path d="M5.14273 13.5H30.3427" stroke="#2F80ED" stroke-linecap="round" stroke-linejoin="round"/>
<path d="M5.14273 22.5H30.3427" stroke="#2F80ED" stroke-linecap="round" stroke-linejoin="round"/>
<path d="M15.6952 4.5C13.1683 8.54942 11.8286 13.2268 11.8286 18C11.8286 22.7732 13.1683 27.4506 15.6952 31.5" stroke="#2F80ED" stroke-linecap="round" stroke-linejoin="round"/>
<path d="M19.0287 4.5C21.5557 8.54942 22.8954 13.2268 22.8954 18C22.8954 22.7732 21.5557 27.4506 19.0287 31.5" stroke="#2F80ED" stroke-linecap="round" stroke-linejoin="round"/>
</svg>
